<svg width="144" height="144" fill="none" xmlns="http://www.w3.org/2000/svg"><g clip-path="url(#clip0)" fill="#41403F"><path d="M76.08 0c-9.925 0-18 8.075-18 18s8.075 18 18 18 18-8.075 18-18-8.075-18-18-18zm0 31.5c-7.445 0-13.5-6.055-13.5-13.5s6.055-13.5 13.5-13.5c7.443 0 13.5 6.055 13.5 13.5s-6.055 13.5-13.5 13.5z"/><path d="M91.83 24.75A2.248 2.248 0 0089.58 27c0 7.445-6.055 13.5-13.5 13.5s-13.5-6.055-13.5-13.5a2.248 2.248 0 00-2.25-2.25A2.248 2.248 0 0058.08 27c0 9.925 8.075 18 18 18s18-8.075 18-18a2.248 2.248 0 00-2.25-2.25z"/><path d="M76.08 11.25a2.248 2.248 0 00-2.25 2.25v9a2.25 2.25 0 104.5 0v-9a2.248 2.248 0 00-2.25-2.25zm-15.75 4.5A2.248 2.248 0 0058.08 18v9a2.25 2.25 0 104.5 0v-9a2.248 2.248 0 00-2.25-2.25zm31.5 0A2.248 2.248 0 0089.58 18v9a2.25 2.25 0 104.5 0v-9a2.248 2.248 0 00-2.25-2.25zM39.247 52.252a2.255 2.255 0 00-3.165.328L3.175 93.08a2.253 2.253 0 001.746 3.67c.655 0 1.303-.284 1.749-.832l32.906-40.5a2.253 2.253 0 00-.329-3.166z"/><path d="M72.482 93.082l-32.906-40.5a2.25 2.25 0 00-3.494 2.837l32.906 40.5a2.246 2.246 0 001.748.831 2.25 2.25 0 001.746-3.668zm-33.235-29.58a2.257 2.257 0 00-3.165.328l-29.25 36a2.253 2.253 0 001.746 3.67c.654 0 1.302-.283 1.748-.832l29.25-36a2.253 2.253 0 00-.329-3.166z"/><path d="M68.826 99.832l-29.25-36a2.25 2.25 0 00-3.494 2.837l29.25 36.001a2.25 2.25 0 003.165.328 2.25 2.25 0 00.329-3.166zm72-6.75l-32.906-40.5a2.25 2.25 0 00-3.495 2.837l32.907 40.5a2.246 2.246 0 001.748.831 2.25 2.25 0 001.746-3.668z"/><path d="M106.174 51.75H37.83A2.248 2.248 0 0035.58 54a2.248 2.248 0 002.25 2.25h68.344a2.25 2.25 0 100-4.5zm32.906 40.5H70.736a2.248 2.248 0 00-2.25 2.25 2.248 2.248 0 002.25 2.25h68.344a2.25 2.25 0 100-4.5zm0 6.75h-72a2.248 2.248 0 00-2.25 2.25 2.248 2.248 0 002.25 2.25h72a2.25 2.25 0 100-4.5z"/><path d="M139.08 92.25a2.248 2.248 0 00-2.25 2.25v6.75a2.25 2.25 0 104.5 0V94.5a2.248 2.248 0 00-2.25-2.25zm-126 1.21a2.248 2.248 0 00-2.25 2.25v46.04a2.25 2.25 0 104.5 0V95.71a2.248 2.248 0 00-2.25-2.25zm49.5-.085a2.248 2.248 0 00-2.25 2.25v46.125a2.25 2.25 0 104.5 0V95.625a2.248 2.248 0 00-2.25-2.25z"/><path d="M136.83 139.5H13.08a2.248 2.248 0 00-2.25 2.25 2.248 2.248 0 002.25 2.25h123.75a2.25 2.25 0 100-4.5z"/><path d="M136.83 99a2.248 2.248 0 00-2.25 2.25v40.5a2.25 2.25 0 104.5 0v-40.5a2.248 2.248 0 00-2.25-2.25zm-126.277 1.179l-3.656-6.75a2.248 2.248 0 10-3.953 2.144l3.656 6.75a2.248 2.248 0 003.049.905 2.247 2.247 0 00.904-3.049zM31.08 114.75a2.248 2.248 0 00-2.25 2.25v24.75a2.25 2.25 0 104.5 0V117a2.248 2.248 0 00-2.25-2.25z"/><path d="M44.58 114.75h-13.5a2.248 2.248 0 00-2.25 2.25 2.248 2.248 0 002.25 2.25h13.5a2.25 2.25 0 100-4.5z"/><path d="M44.58 114.75a2.248 2.248 0 00-2.25 2.25v24.75a2.25 2.25 0 104.5 0V117a2.248 2.248 0 00-2.25-2.25zm-6.75-27c-4.964 0-9 4.037-9 9 0 4.964 4.036 9 9 9 4.963 0 9-4.036 9-9 0-4.963-4.037-9-9-9zm0 13.5a4.505 4.505 0 01-4.5-4.5c0-2.482 2.018-4.5 4.5-4.5 2.48 0 4.5 2.018 4.5 4.5s-2.018 4.5-4.5 4.5zm56.25 9H73.83a2.248 2.248 0 00-2.25 2.25v15.75a2.248 2.248 0 002.25 2.25h20.25a2.25 2.25 0 002.25-2.25V112.5a2.248 2.248 0 00-2.25-2.25zM91.83 126H76.08v-11.25h15.75V126zm33.75-15.75h-20.25a2.248 2.248 0 00-2.25 2.25v15.75a2.248 2.248 0 002.25 2.25h20.25a2.25 2.25 0 002.25-2.25V112.5a2.248 2.248 0 00-2.25-2.25zM123.33 126h-15.75v-11.25h15.75V126zm-27-67.5H62.58a2.248 2.248 0 00-2.25 2.25A2.248 2.248 0 0062.58 63h33.75a2.25 2.25 0 100-4.5z"/><path d="M64.326 59.333l-5.486-6.75a2.25 2.25 0 00-3.494 2.837l5.486 6.75c.445.547 1.093.83 1.748.83a2.25 2.25 0 001.746-3.667zm33.75 0l-5.486-6.75a2.25 2.25 0 00-3.494 2.837l5.486 6.75c.445.547 1.093.83 1.748.83a2.25 2.25 0 001.746-3.667z"/></g><defs><clipPath id="clip0"><path fill="#fff" d="M0 0h144v144H0z"/></clipPath></defs></svg>