<svg width="144" height="144" fill="none" xmlns="http://www.w3.org/2000/svg"><g clip-path="url(#clip0)" fill="#41403F"><path d="M142.579 88.343c-4.318-5.757-8.636-5.757-19.192-.24l-2.639 1.627V47.8h9.596c.96 0 1.92-.48 2.159-1.44.24-.959 0-1.919-.719-2.638L88.602 4.858c-7.437-6.477-18.232-6.477-25.43 0L20.23 43.962c-.72.72-.96 1.679-.72 2.639.24.72 1.2 1.439 2.16 1.439h9.836v31.94c-5.656 1.386-11.126 4.43-14.634 6.672v-5.026H.079V144h16.793v-7.197h31.187c4.798 0 9.836-.48 14.633-.959l31.187-4.798c1.2 0 2.4-.24 3.359-.48 2.879-.48 5.518-1.92 7.917-4.079l36.225-28.548c2.879-2.399 3.359-6.717 1.199-9.596zM27.907 43.242L66.291 8.456c5.518-4.798 13.675-4.798 18.952 0l38.384 34.786h-5.757c-1.44 0-2.399.96-2.399 2.399v47.34l-12.715 7.837c-2.821 1.645-9.099 2.139-14.994 2.158 1.037-2.114.52-4.68-1.56-7.916-3.838-5.518-10.315-8.876-17.272-8.876h-9.356c-5.038 0-9.836-1.44-13.674-4.318-2.64-1.92-5.758-2.88-9.596-2.64V45.642c0-1.44-.96-2.399-2.4-2.399h-5.997zm-15.833 95.96H4.877V86.424h7.197v52.778zM138.5 94.82l-36.465 28.309-.239.239c-1.68 1.44-3.36 2.399-5.278 2.639h-.24c-.96.24-1.68.24-2.639.24l-31.667 4.798c-4.558.72-9.356.96-13.914.96H16.872V92.421c3.648-2.584 10.377-6.61 16.527-7.874.313.074.649.07.986-.042 2.185-.292 4.103-.315 5.757.085.957.29 1.846.73 2.64 1.354 4.557 3.359 10.315 5.278 16.553 5.278h9.356c5.517 0 10.315 2.399 13.674 7.197.645.967.963 1.932 1.03 2.608a.856.856 0 01-.07.271c-.48.959-2.88 1.919-6.958 1.919-.562 0-1.05.185-1.438.48H53.337c-7.437 0-11.995 3.598-11.995 9.596 0 1.439.959 2.399 2.398 2.399 1.44 0 2.4-.96 2.4-2.399 0-1.2 0-4.798 7.196-4.798h24.71c11.275.239 21.83 0 27.349-2.879l20.631-12.715c10.076-5.038 11.035-3.838 12.955-.96.48.72.48 2.16-.48 2.88z"/><path d="M62.453 50.439c5.278 0 9.596-4.318 9.596-9.596 0-5.278-4.318-9.596-9.596-9.596-5.278 0-9.596 4.318-9.596 9.596 0 5.278 4.318 9.596 9.596 9.596zm0-14.394a4.812 4.812 0 014.798 4.798 4.812 4.812 0 01-4.798 4.798 4.812 4.812 0 01-4.798-4.798 4.812 4.812 0 014.798-4.798zm28.787 23.99c-5.277 0-9.595 4.318-9.595 9.596 0 5.278 4.318 9.596 9.596 9.596 5.278 0 9.596-4.318 9.596-9.596 0-5.278-4.318-9.596-9.596-9.596zm0 14.394a4.812 4.812 0 01-4.797-4.798 4.812 4.812 0 014.798-4.798 4.812 4.812 0 014.798 4.798 4.812 4.812 0 01-4.798 4.798zm-35.984 4.798c.72 0 1.2-.24 1.68-.72l43.181-43.182c.96-.96.96-2.399 0-3.358-.96-.96-2.399-.96-3.359 0L53.576 75.149c-.96.96-.96 2.398 0 3.358.48.48.96.72 1.68.72z"/></g><defs><clipPath id="clip0"><path fill="#fff" d="M0 0h144v144H0z"/></clipPath></defs></svg>