<svg width="144" height="144" fill="none" xmlns="http://www.w3.org/2000/svg"><g clip-path="url(#clip0)" fill="#41403F"><path d="M134.4 9.6H9.6C4.298 9.6 0 13.9 0 19.2v81.6c0 5.301 4.298 9.6 9.6 9.6h47.174l-5.76 19.2H45.6v4.8h52.8v-4.8h-5.414l-2.368-7.892-4.598 1.383 1.954 6.509H56.026l6.273-20.911a2.401 2.401 0 00-2.3-3.089H9.6a4.8 4.8 0 01-4.8-4.8V96h48v-4.8h-48v-72a4.8 4.8 0 014.8-4.8h124.8a4.8 4.8 0 014.8 4.8v72h-12V96h12v4.8a4.804 4.804 0 01-1.601 3.579l3.201 3.575a9.614 9.614 0 003.2-7.154V19.2c0-5.301-4.299-9.6-9.6-9.6z"/><path d="M129.6 81.6h4.8v4.8h-4.8v-4.8zm-120 4.8h40.8a2.4 2.4 0 002.4-2.4V60a2.4 2.4 0 00-2.4-2.4h-9.6a2.4 2.4 0 00-2.4 2.4v21.6h-4.8V64.8a2.4 2.4 0 00-2.4-2.4h-9.6a2.4 2.4 0 00-2.4 2.4v16.8H9.6v4.8zm33.6-24H48v19.2h-4.8V62.4zM24 67.2h4.8v14.4H24V67.2zm48-14.4v-7.2a2.4 2.4 0 00-2.4-2.4H60a2.4 2.4 0 00-2.4 2.4v16.8h4.8V48h4.8v4.8H72zm19.2-7.2V31.2a2.4 2.4 0 00-2.4-2.4h-9.6a2.4 2.4 0 00-2.4 2.4V48h4.8V33.6h4.8v12h4.8zm19.2 4.8v-9.6a2.4 2.4 0 00-2.4-2.4h-9.6a2.4 2.4 0 00-2.4 2.4V48h4.8v-4.8h4.8v7.2h4.8zM127.2 24h-9.6a2.4 2.4 0 00-2.4 2.4v28.8h4.8V28.8h4.8v40.8h4.8V26.4a2.4 2.4 0 00-2.4-2.4zM12 19.2h4.8V24H12v-4.8zm9.6 0h4.8V24h-4.8v-4.8zm9.6 0H36V24h-4.8v-4.8z"/><path d="M120.533 100.339c8.377-14.978 4.167-33.86-9.78-43.862-13.948-10.002-33.183-7.93-44.682 4.81-11.5 12.74-11.595 32.086-.221 44.939 11.373 12.853 30.586 15.112 44.632 5.25l20.73 20.73a7.49 7.49 0 1010.594-10.593l-21.273-21.274zM62.4 84c0-15.906 12.894-28.8 28.8-28.8S120 68.094 120 84s-12.894 28.8-28.8 28.8c-15.9-.018-28.783-12.901-28.8-28.8zm74.109 45.6a2.68 2.68 0 01-1.903-.787l-20.4-20.4a33.994 33.994 0 003.612-4.001l20.59 20.59a2.69 2.69 0 01-1.899 4.598z"/><path d="M91.2 60c-13.255 0-24 10.745-24 24s10.745 24 24 24 24-10.745 24-24c-.014-13.248-10.751-23.985-24-24zm0 43.2C80.595 103.2 72 94.604 72 84c0-10.603 8.596-19.2 19.2-19.2s19.2 8.597 19.2 19.2c-.012 10.6-8.602 19.188-19.2 19.2z"/><path d="M76.8 84h4.8a9.6 9.6 0 019.6-9.6v-4.8c-7.95.008-14.392 6.451-14.4 14.4z"/></g><defs><clipPath id="clip0"><path fill="#fff" d="M0 0h144v144H0z"/></clipPath></defs></svg>