<svg width="144" height="144" fill="none" xmlns="http://www.w3.org/2000/svg"><path d="M16.758 16.791V141.53a2.399 2.399 0 002.4 2.399h91.154a2.399 2.399 0 002.398-2.399V40.78c0-.053-.026-.099-.031-.151a2.273 2.273 0 00-.122-.617c-.027-.077-.046-.15-.079-.226a2.375 2.375 0 00-.481-.703L88.01 15.097a2.326 2.326 0 00-.706-.48 2.163 2.163 0 00-.22-.08c-.2-.069-.41-.11-.621-.124-.041.007-.088-.019-.139-.019H19.158a2.398 2.398 0 00-2.4 2.398zm87.763 21.59H88.722V22.582l15.799 15.799zM21.555 19.19h62.37v21.59a2.399 2.399 0 002.398 2.398h21.59v95.953H21.555V19.191z" fill="#41403F"/><path d="M117.508 124.737v4.797h7.196a2.398 2.398 0 002.399-2.398V2.399A2.399 2.399 0 00124.704 0H33.55a2.399 2.399 0 00-2.4 2.4v7.195h4.799V4.797h86.356v119.94h-4.797z" fill="#41403F"/><path d="M35.949 47.976h57.57v4.797H35.95v-4.797zm0-14.393h19.19v4.798H35.95v-4.798zm0 28.786h38.38v4.798H35.95v-4.798zm43.178 0h14.392v4.798H79.127v-4.798zM35.949 76.761h57.57v4.798H35.95v-4.798zm0 28.786h57.57v4.798H35.95v-4.798zm21.589-14.393h35.981v4.797H57.537v-4.797zm-21.589 0H52.74v4.797H35.95v-4.797zm0 28.786h9.595v4.797H35.95v-4.797zm14.392 0H93.52v4.797H50.341v-4.797z" fill="#41403F"/></svg>