<svg width="166" height="31" fill="none" xmlns="http://www.w3.org/2000/svg"><path stroke="#000" d="M.5.5h165v30H.5z"/><path d="M44.1 23V10.4h-5.3l-.08 2.82c-.067 1.933-.213 3.54-.44 4.82-.213 1.267-.527 2.267-.94 3-.4.72-.9 1.233-1.5 1.54-.6.307-1.313.46-2.14.46v-1.58a2.39 2.39 0 001.34-.38c.387-.253.713-.693.98-1.32.28-.64.5-1.527.66-2.66.16-1.133.267-2.58.32-4.34l.12-3.96h8.78V23h-1.8zm9.49.2c-1.04 0-1.96-.247-2.76-.74a5.35 5.35 0 01-1.84-1.98 5.617 5.617 0 01-.66-2.68c0-.973.22-1.867.66-2.68a5.308 5.308 0 011.86-1.98c.8-.507 1.713-.76 2.74-.76 1.04 0 1.953.253 2.74.76.8.493 1.42 1.153 1.86 1.98.453.813.68 1.707.68 2.68a5.49 5.49 0 01-.68 2.68 5.351 5.351 0 01-1.84 1.98c-.787.493-1.707.74-2.76.74zm-3.46-5.38c0 .72.153 1.373.46 1.96.32.587.74 1.053 1.26 1.4.52.333 1.1.5 1.74.5.64 0 1.22-.173 1.74-.52a3.656 3.656 0 001.26-1.4c.32-.6.48-1.26.48-1.98s-.16-1.373-.48-1.96a3.656 3.656 0 00-1.26-1.4c-.52-.347-1.1-.52-1.74-.52-.64 0-1.22.18-1.74.54-.52.347-.94.813-1.26 1.4-.307.587-.46 1.247-.46 1.98zM60.981 23V12.56h6.44v1.56h-4.68V23h-1.76zm12.803.2c-1.04 0-1.96-.247-2.76-.74a5.35 5.35 0 01-1.84-1.98 5.617 5.617 0 01-.66-2.68c0-.973.22-1.867.66-2.68a5.308 5.308 0 011.86-1.98c.8-.507 1.713-.76 2.74-.76 1.04 0 1.953.253 2.74.76.8.493 1.42 1.153 1.86 1.98.453.813.68 1.707.68 2.68a5.49 5.49 0 01-.68 2.68 5.35 5.35 0 01-1.84 1.98c-.787.493-1.707.74-2.76.74zm-3.46-5.38c0 .72.153 1.373.46 1.96.32.587.74 1.053 1.26 1.4.52.333 1.1.5 1.74.5.64 0 1.22-.173 1.74-.52a3.656 3.656 0 001.26-1.4c.32-.6.48-1.26.48-1.98s-.16-1.373-.48-1.96a3.656 3.656 0 00-1.26-1.4c-.52-.347-1.1-.52-1.74-.52-.64 0-1.22.18-1.74.54-.52.347-.94.813-1.26 1.4-.307.587-.46 1.247-.46 1.98zM83.737 23v-8.88h-3.6v-1.56h8.96v1.56h-3.6V23h-1.76zm7.108 0V12.58h1.76v8.06l5.84-8.08h1.6V23h-1.76v-7.9l-5.76 7.9h-1.68zm11.993 0V12.56h8.66V23h-1.76v-8.88h-5.14V23h-1.76z" fill="#0C0B0B"/></svg>