<svg width="165" height="47" fill="none" xmlns="http://www.w3.org/2000/svg"><g clip-path="url(#clip0)"><path d="M.066 14.37h30.15V0H.066v14.37z" fill="#6E8290"/><path d="M.066 28.175h30.152V14.087H.066v14.088z" fill="#6E8290"/><path d="M5.324 14.945h19.617V13.23H5.325v1.715z" fill="#fff"/><path d="M49.454 7.035c3.28 0 5.34 2.004 5.34 4.773 0 2.884-2.06 4.544-5.34 4.544h-6.526v4.714h-2.78V7.036h9.306zm.16 6.998c1.44 0 2.341-.932 2.341-2.187 0-1.384-.902-2.489-2.501-2.489h-6.526v4.676h6.685zm15.489 7.425c-4.782 0-8.745-2.972-8.745-7.425 0-4.395 3.963-7.426 8.745-7.426 4.805 0 8.704 3.03 8.704 7.426 0 4.453-3.9 7.425-8.704 7.425zm0-12.456c-3.484 0-5.866 2.206-5.866 5.031 0 2.9 2.283 5.049 5.866 5.049 3.563 0 5.822-2.167 5.822-5.049 0-2.825-2.26-5.03-5.822-5.03zM85.336 21.44c-5.025 0-8.808-2.974-8.808-7.424 0-4.378 3.84-7.41 8.808-7.41 2.963 0 5.082.789 6.986 2.094l-1.486 2.061c-1.379-.994-3.12-1.722-5.42-1.722-3.665 0-5.945 2.17-5.945 4.977 0 2.9 2.302 4.99 5.984 4.99 2.3 0 4.121-.691 5.503-1.68l1.48 2.057c-1.899 1.309-4.139 2.058-7.102 2.058zm31.142-3.78l-1.72 3.407h-3.004l7.304-14.031h2.92l7.327 14.031h-3.003l-1.719-3.406h-8.105zm1.16-2.28h5.786l-2.884-5.687-2.902 5.687zm26.395 5.686v-6.003h-9.826v6.003h-2.783V7.036h2.783v5.726h9.826V7.035h2.783v14.03h-2.783zm6.902 0V7.036h2.785v6.547l7.543-6.548h3.417l-7.76 6.756 8.082 7.275h-3.739l-7.543-6.81v6.81h-2.785zM104.88 12.18h-6.518V9.22H109.1V7.024H95.58v14.018h9.3c3.277 0 5.536-1.665 5.536-4.43 0-2.879-2.259-4.433-5.536-4.433zm.16 6.543h-6.678V14.5h6.678c1.744 0 2.735.86 2.735 2.111 0 1.382-.788 2.112-2.735 2.112zM4.273 43.355c-.626-.25-1.301-.416-1.902-.416-.875 0-1.313.178-1.313.495 0 .904 3.908.178 3.908 2.11 0 .8-.803 1.415-2.412 1.415-.954 0-1.698-.185-2.554-.616l.353-.72c.752.39 1.45.558 2.21.558.952 0 1.462-.254 1.462-.638 0-.992-3.91-.253-3.91-2.062 0-.78.799-1.319 2.237-1.319.86 0 1.587.181 2.281.504l-.36.69zm4.314 3.625c-1.56 0-2.858-.969-2.858-2.423 0-1.437 1.297-2.426 2.858-2.426 1.569 0 2.841.99 2.841 2.426 0 1.454-1.272 2.423-2.841 2.423zm0-4.066c-1.139 0-1.915.72-1.915 1.643 0 .95.746 1.65 1.915 1.65 1.161 0 1.903-.706 1.903-1.65 0-.923-.742-1.643-1.903-1.643zm6.562 4.063c-1.64 0-2.873-.972-2.873-2.425 0-1.431 1.253-2.42 2.873-2.42.966 0 1.66.257 2.28.685l-.481.672a2.938 2.938 0 00-1.773-.562c-1.196 0-1.941.707-1.941 1.624 0 .95.751 1.63 1.954 1.63.75 0 1.345-.225 1.795-.552l.487.675c-.624.427-1.355.673-2.321.673zm3.286-.122h.91v-4.581h-.91v4.581zm2.203 0v-4.581h4.465v.758h-3.557v1.11h2.765v.759h-2.765v1.198h3.712v.756h-4.62zm7.934-3.831v3.831h-.909v-3.831h-1.999v-.75h4.902v.75h-1.994zm2.732 3.831v-4.581h4.465v.758h-3.555v1.11h2.764v.759h-2.764v1.198h3.711v.756h-4.62zm10.308-.679c.495 0 1.012-.105 1.398-.272V44.57h.882v1.776c-.622.392-1.477.63-2.322.63-1.639 0-2.874-.972-2.874-2.425 0-1.431 1.255-2.42 2.874-2.42.95 0 1.663.251 2.282.679l-.483.672c-.45-.323-1.02-.544-1.771-.544-1.196-.025-1.941.695-1.941 1.612 0 .95.752 1.625 1.955 1.625zm3.509.679v-4.581h4.466v.758h-3.558v1.11h2.767v.759H46.03v1.198h3.713v.756h-4.62zm6.485 0h-.89v-4.581h.928l3.194 3.452.02-.007a34.901 34.901 0 01-.056-2.248v-1.197h.885v4.581h-.919l-3.182-3.451-.015.005c.035.679.035 1.862.035 2.25v1.196zm5.384 0v-4.581h4.463v.758h-3.556v1.11h2.764v.759h-2.764v1.198h3.712v.756h-4.62zm7.955-1.688H63.48v1.688h-.912v-4.581h3.154c1.045 0 1.69.596 1.69 1.46 0 .818-.634 1.307-1.404 1.41l1.46 1.711h-1.14l-1.384-1.688zm.681-.76c.565 0 .888-.276.888-.673 0-.434-.283-.702-.791-.702h-2.242v1.375h2.145zm3.691 1.333l-.562 1.115h-.982l2.385-4.581h.957l2.392 4.581h-.98l-.564-1.114h-2.646zm.377-.742h1.888l-.938-1.858-.95 1.858zm4.466 1.857v-4.581h.908v3.825h3.272v.756h-4.18zm4.896 0v-4.581h4.462v.758h-3.553v1.11h2.761v.759h-2.761v1.198h3.71v.756h-4.618zm10.511-.671c.498 0 1.015-.102 1.405-.273v-1.332h.88v1.778c-.618.394-1.479.632-2.323.632-1.644 0-2.88-.974-2.88-2.432 0-1.431 1.256-2.421 2.88-2.421.948 0 1.663.25 2.29.68l-.489.67c-.45-.324-1.021-.544-1.776-.544-1.196-.024-1.946.696-1.946 1.615 0 .95.754 1.627 1.96 1.627zm5.895-1.008h-1.467v1.692h-.91v-4.593h3.16c1.046 0 1.697.6 1.697 1.465 0 .818-.635 1.306-1.413 1.411l1.466 1.717h-1.142l-1.391-1.692zm.684-.762c.568 0 .89-.277.89-.674 0-.433-.284-.706-.791-.706h-2.25v1.38h2.151zm5.43 2.583c-1.564 0-2.862-.975-2.862-2.433 0-1.438 1.298-2.428 2.862-2.428 1.571 0 2.85.99 2.85 2.428 0 1.458-1.279 2.433-2.85 2.433zm0-4.078c-1.138 0-1.92.719-1.92 1.645 0 .948.747 1.65 1.92 1.65 1.166 0 1.904-.706 1.904-1.65 0-.926-.738-1.645-1.904-1.645zm8.848 2.079c0 1.171-.93 2.002-2.477 2.002-1.545 0-2.473-.849-2.473-2.002v-2.724h.911v2.633c0 .76.495 1.305 1.562 1.305 1.064 0 1.571-.539 1.571-1.305v-2.633h.906v2.724zm4.317-2.723c1.072 0 1.752.653 1.752 1.562 0 .94-.68 1.489-1.752 1.489h-2.136v1.542h-.909v-4.593h3.045zm.054 2.29c.465 0 .767-.306.767-.718 0-.45-.302-.814-.821-.814h-2.136v1.531h2.19z" fill="#6E8290"/></g><defs><clipPath id="clip0"><path fill="#fff" d="M0 0h165v47H0z"/></clipPath></defs></svg>