<svg width="166" height="34" fill="none" xmlns="http://www.w3.org/2000/svg"><path fill-rule="evenodd" clip-rule="evenodd" d="M20.076.525v8.693H16.78c-4.182 0-7.577 3.448-7.577 7.695s3.395 7.694 7.577 7.694h3.297V33.3c7.53-1.55 13.188-8.294 13.188-16.388 0-8.094-5.659-14.84-13.188-16.388z" fill="#6E8290"/><path fill-rule="evenodd" clip-rule="evenodd" d="M16.78 27.305c-5.635 0-10.21-4.647-10.21-10.367 0-5.721 4.575-10.368 10.21-10.368h.664V.2c-.222 0-.443-.025-.665-.025C7.676.175.295 7.669.295 16.913c0 9.243 7.381 16.737 16.484 16.737.222 0 .443 0 .665-.025V27.28h-.665v.025zM51.15 9.393c-.688.6-1.599.95-2.583.95-2.214 0-4.035-1.85-4.035-4.097 0-2.249 1.821-4.097 4.035-4.097 1.01 0 1.944.374 2.657 1.024l1.428-1.45C51.569.726 50.142.1 48.566.1c-3.346 0-6.052 2.748-6.052 6.146 0 3.397 2.706 6.145 6.052 6.145a5.966 5.966 0 004.01-1.549L51.15 9.393zM115.538.575l-4.453 5.446-4.503-5.446-.024.05v-.05h-1.796V11.89h1.796V3.597l4.527 5.446 4.453-5.346v8.194h1.796V.575h-1.796zM66.06 6.246c0 3.397-2.706 6.145-6.052 6.145-3.346 0-6.052-2.748-6.052-6.145C53.956 2.848 56.662.1 60.008.1c3.346 0 6.053 2.748 6.053 6.146zm-1.992 0c0-2.274-1.821-4.097-4.035-4.097-2.24 0-4.035 1.848-4.035 4.097 0 2.248 1.82 4.097 4.035 4.097 2.214 0 4.035-1.85 4.035-4.097zm38.848 0c0 3.397-2.706 6.145-6.052 6.145-3.346 0-6.053-2.748-6.053-6.145C90.811 2.848 93.518.1 96.864.1s6.052 2.748 6.052 6.146zm-1.992 0c0-2.274-1.821-4.097-4.035-4.097-2.24 0-4.035 1.848-4.035 4.097 0 2.248 1.82 4.097 4.035 4.097 2.214 0 4.035-1.85 4.035-4.097zM90.787.55h-2.411l-4.6 4.771h-1.87V.575h-1.772v11.317h1.771V7.145h1.846l4.576 4.722h2.41l-5.436-5.621L90.787.55zm75.065 0h-2.411l-4.601 4.77h-1.87V.575h-1.796v11.317h1.796V7.145h1.846l4.576 4.722h2.411l-5.437-5.621L165.852.55zM139.65 11.891h1.968L136.697.575h-2.017l-4.921 11.316h1.968l1.058-2.448h5.757l1.108 2.448zm-6.028-4.271l2.091-4.747 2.091 4.747h-4.182zm-55.776.999c0-.925-.394-1.774-1.01-2.374a3.327 3.327 0 001.01-2.373C77.846 2.074 76.419.6 74.647.6h-6.495v11.316h6.52c1.747-.05 3.174-1.499 3.174-3.297zm-7.898-6.22h4.7c.787 0 1.426.649 1.426 1.448 0 .8-.64 1.45-1.427 1.45h-4.7v-2.9zm4.675 7.669h-4.7V7.145h4.724c.787.025 1.403.65 1.403 1.449a1.43 1.43 0 01-1.427 1.474zM151.189.6v4.72h-6.52V.6h-1.796v11.24h1.796V7.145h6.52v4.696h1.796V.6h-1.796zm-22.045 8.019c0-1.799-1.452-3.273-3.223-3.273h-4.699V2.398h6.839V.6h-8.635v11.316h6.52a3.293 3.293 0 003.198-3.297zm-3.223 1.449h-4.699V7.145h4.724c.787.025 1.402.65 1.402 1.449 0 .824-.64 1.474-1.427 1.474z" fill="#6E8290"/><path d="M45.024 33.1c-.787-.424-1.377-1.023-1.82-1.798-.443-.774-.665-1.624-.665-2.573 0-.95.222-1.824.665-2.573.443-.774 1.058-1.349 1.845-1.799a5.417 5.417 0 012.632-.65c.763 0 1.452.126 2.067.375.615.25 1.157.65 1.6 1.15l-.911.874c-.738-.774-1.624-1.174-2.731-1.174-.714 0-1.378.175-1.944.5a3.376 3.376 0 00-1.353 1.349 3.918 3.918 0 00-.492 1.923c0 .7.172 1.35.492 1.924.32.574.788 1.024 1.353 1.349.59.324 1.23.5 1.944.5 1.083 0 1.993-.4 2.731-1.175l.91.874c-.443.5-.984.9-1.599 1.15-.64.25-1.328.4-2.091.4-.984.024-1.845-.175-2.633-.625zm16.14-8.068h-3.321v8.594h-1.354v-8.594h-3.296v-1.224h7.971v1.224zm9.793-.3c.713.6 1.082 1.449 1.082 2.523 0 1.075-.369 1.899-1.082 2.523-.714.6-1.698.925-2.953.925h-2.386v2.973H64.24v-9.843h3.764c1.255 0 2.239.3 2.953.9zm-.985 4.147c.468-.375.69-.924.69-1.624 0-.7-.222-1.249-.69-1.624-.467-.374-1.131-.574-1.992-.574h-2.338v4.397h2.338c.86 0 1.525-.2 1.992-.575zm11.17 2.298H76l-1.058 2.449h-1.427l4.38-9.818h1.377l4.404 9.818h-1.451l-1.083-2.449zm-.467-1.099l-2.091-4.821-2.092 4.821h4.183zm6.151-6.245l2.534 3.597 2.534-3.597h1.624l-3.272 4.721 3.543 5.097h-1.624l-2.83-3.923-2.755 3.922h-1.6l3.519-5.046-3.297-4.771h1.624zM98.242 33.1a4.601 4.601 0 01-1.846-1.798c-.442-.774-.664-1.624-.664-2.573 0-.95.222-1.799.665-2.573a4.6 4.6 0 011.845-1.799 5.486 5.486 0 012.632-.65c.96 0 1.846.226 2.633.65a4.603 4.603 0 011.845 1.799c.443.774.664 1.624.664 2.573 0 .95-.221 1.824-.664 2.573-.443.775-1.058 1.35-1.845 1.799a5.419 5.419 0 01-2.633.65c-.96 0-1.845-.2-2.632-.65zm4.551-1.073a3.475 3.475 0 001.329-1.35c.32-.574.492-1.224.492-1.923 0-.7-.172-1.349-.492-1.924a3.475 3.475 0 00-1.329-1.348 3.792 3.792 0 00-1.919-.5c-.713 0-1.353.175-1.919.5a3.537 3.537 0 00-1.353 1.349 3.919 3.919 0 00-.492 1.923c0 .7.172 1.35.492 1.924.32.574.787 1.024 1.353 1.349.566.324 1.23.5 1.919.5.714-.026 1.353-.176 1.919-.5zm14.344-2.623c.345.4.517.924.517 1.573 0 .85-.295 1.5-.911 1.974-.615.475-1.5.7-2.681.7h-4.429v-9.818h4.158c1.058 0 1.895.225 2.485.65.591.424.886 1.049.886 1.873 0 .524-.123 1-.394 1.349-.271.375-.64.65-1.107.85.64.15 1.132.449 1.476.849zm-6.151-1.25h2.707c.664 0 1.181-.124 1.55-.4.344-.274.541-.674.541-1.198 0-.525-.172-.925-.541-1.2-.369-.274-.861-.424-1.526-.424h-2.706v3.223h-.025zm5.265 2.699c0-.55-.196-.975-.565-1.25-.37-.274-.935-.4-1.674-.4h-3.026v3.323h3.026c1.501 0 2.239-.55 2.239-1.673zm11.367.324h-5.142l-1.058 2.449h-1.427l4.38-9.818h1.377l4.404 9.818h-1.476l-1.058-2.449zm-.467-1.099l-2.091-4.821-2.092 4.821h4.183zm14.368-6.245v9.818h-1.377v-4.372h-5.561v4.372h-1.378v-9.818h1.378v4.222h5.561v-4.222h1.377zm4.38 0h1.377v7.57l5.733-7.57h1.279v9.818h-1.353v-7.57l-5.732 7.57h-1.304v-9.818zm19.781 8.593v1.224h-7.012v-9.817h6.815v1.224h-5.437v3.023h4.847v1.199h-4.847v3.172h5.634v-.025zm.172-13.889H42.515v1.524h123.337v-1.524z" fill="#6E8290"/></svg>