<svg width="68" height="60" fill="none" xmlns="http://www.w3.org/2000/svg"><path fill-rule="evenodd" clip-rule="evenodd" d="M24.1 28.386h7.594V4.032H24.1v24.354zm-4.148 3.472h15.887V.564H19.953v31.294zM0 38.723h67.532v-3.457H0v3.457zm4.133 13.511h19.52v-6.6H4.133v6.6zM0 59.604h4.133v-3.917h23.655v-13.51H0v17.427zM51.645 4.032v27.825h4.146V10.973l7.591-6.938v27.822h4.15V.564h-5.827l-5.914 5.39V.564h-5.825L39.9 9.66v22.197h4.15V10.975l7.594-6.943zM35.966 52.234h11.517v-6.6H35.966v6.6zm15.83 0H63.4v-6.6H51.795v6.6zM31.83 55.687h15.653v3.917h4.311v-3.917h15.738v-13.51H31.831v13.51zM4.15 10.975l7.59-6.94v24.352H4.15V10.975zm7.59 20.882h4.15V.564h-5.825L0 9.66v22.197h11.74z" fill="#6E8290"/></svg>