<svg width="166" height="44" fill="none" xmlns="http://www.w3.org/2000/svg"><g clip-path="url(#clip0)" fill-rule="evenodd" clip-rule="evenodd"><path d="M0 .752h43.629V44H0V.752z" fill="#6E8290"/><path d="M1.262 2.002h41.105v40.747H1.262V2.002z" fill="#6E8290"/><path d="M3.443 34.516l5.362 5.419 12.563-12.636 12.984 12.896 5.44-5.34-12.853-12.74 2.471-2.37V14.69l1.55-1.302v3.96l1.999 1.615 5.965-5.914 1.919 1.459C41.973 10.366 35.428.96 30.014 6.17l-6.308 6.2 1.288 1.537-3.206 3.1-3.101-3.022 1.629-1.46-6.912-6.616C8.2 1.663 2.864 8.125 2.68 14.429l1.891-1.563 5.808 6.201 2.076-1.719v-3.804l1.288.964v4.976l2.523 2.5L3.443 34.517z" fill="#fff"/><path d="M54.773 5.936v3.752h1.629c2.234-.417 1.63-3.596 0-3.752h-1.63zm-4.626-3.725v16.987h4.626v-5.524l3.942 5.524h5.467l-4.861-6.8c5.624-2.71 3.522-10.109-2.392-10.186h-6.782V2.21zm21.394 8.493c1.524 0 2.759 1.146 2.759 2.553 0 1.406-1.236 2.553-2.76 2.553-1.497 0-2.733-1.147-2.733-2.553 0-1.407 1.236-2.553 2.734-2.553zm-.973-3.752c1.262 0 2.445.417 3.416 1.094v-.651h4.521l.026 11.802h-4.573l.026-.73a5.966 5.966 0 01-3.416 1.069c-3.364 0-6.123-2.814-6.123-6.28 0-3.464 2.76-6.304 6.123-6.304zm10.356.443h4.81v11.802h-4.81V7.395zM83.34.647a2.535 2.535 0 012.524 2.527 2.535 2.535 0 01-2.524 2.527 2.541 2.541 0 01-2.55-2.527A2.543 2.543 0 0183.34.647zm36.507 6.748h4.81v11.802h-4.81V7.395zM122.24.647a2.54 2.54 0 012.549 2.527 2.535 2.535 0 01-5.072 0c0-1.38 1.13-2.527 2.523-2.527zM86.627 7.395v3.752h1.656v8.05h4.653v-8.05h4.362v8.05h4.81v-8.102h2.996V7.447h-3.128v-2.63c-.079-.964 2.208-1.356 2.997-.574V.387c-4.416-1.381-7.99 1.094-7.965 4.924v2.084h-4.1V4.816c-.053-.963 1.946-1.355 3.101-.573V.387c-3.838-1.12-7.937.73-7.91 4.897V7.37l-1.472.026zm25.336 12.14c4.127-.026 5.65-1.718 6.545-4.194h-4.179c-1.893 2.397-4.653.652-4.52-1.302h8.831c0-4.794-2.577-7.06-6.676-7.06s-6.675 2.865-6.675 6.357c0 3.491 2.995 6.226 6.674 6.2zm-1.551-8.284c.053-1.433 3.207-1.433 3.417 0h-3.417zm34.299 8.285c4.152-.027 5.678-1.72 6.57-4.195h-4.205c-1.892 2.397-4.652.652-4.519-1.302h8.831c0-4.794-2.549-7.06-6.676-7.06-4.1 0-6.675 2.865-6.675 6.357 0 3.491 2.994 6.226 6.674 6.2zm-1.551-8.285c.053-1.433 3.207-1.433 3.417 0h-3.417zm-6.386-3.621l-1.419 2.866c-1.787-.548-3.523-.443-3.47.051.053.313-.236.86 2.55 1.251 4.152.65 3.811 8.31-3.154 7.738-1.919-.13-3.469-.626-4.757-1.381l1.551-3.075c2.182 1.068 4.284 1.694 4.441.625.184-1.328-2.286-.86-3.784-1.98-2.681-1.641-1.158-6.722 3.233-6.774 1.55-.103 3.153.157 4.809.679zm16.453-.235v11.802h4.495V11.98c.131-1.798 3.706-2.11 3.732 0v7.217H166v-7.399c-.105-4.142-4.494-6.148-8.463-3.517v-.886h-4.31zM52.801 26.414L49.805 43.92h8.49c5.756 0 8.12-7.085 4.02-9.509 3.496-3.204 1.71-8.024-2.049-8.076l-7.465.078zm3.443 10.447l-.604 2.892h1.97c2.235.104 1.972-2.892.685-2.892h-2.05zm.999-6.279l-.5 2.345.605.026c1.814.104 2.865-2.371.683-2.371h-.788zm6.991 13.366h5.151l1.551-3.075h5.835L77.638 44h4.757l-4.126-17.482h-4.863l-9.172 17.43zm8.385-6.748h3.206L74.8 32.588 72.62 37.2zM84.025 44h4.757l1.209-10.969 6.807 10.917h5.098l2.129-17.535h-4.756l-1.34 10.968-6.809-11.02h-4.914L84.025 44zm23.418-17.639l-3.338 17.587h5.02l1.34-6.567 4.494 6.567h6.597l-6.439-9.224 8.227-8.389h-6.387l-5.625 6.2.894-6.2-4.783.026z" fill="#6E8290"/></g><defs><clipPath id="clip0"><path fill="#fff" d="M0 0h166v44H0z"/></clipPath></defs></svg>