<svg width="196" height="33" fill="none" xmlns="http://www.w3.org/2000/svg"><path d="M87.638 9.526l4.085-3.104H78.045v18.595h13.678v-3.104h-9.77v-4.748h8.35V14.06h-8.35V9.526h5.684zm-19.926 4.139h-4.737v-4.14h7.58l4.085-3.103H59.066v18.595h8.142c4.56 0 7.195-2.13 7.195-5.843 0-3.561-2.369-5.51-6.691-5.51zm-.652 8.248h-4.085v-5.144h4.085c2.487 0 3.642.852 3.642 2.587 0 1.735-1.243 2.557-3.642 2.557zm35.736-15.491h-7.431v18.595h3.908v-5.265h3.553c4.737 0 7.698-2.557 7.698-6.665 0-4.109-2.961-6.665-7.728-6.665zm-.088 10.226h-3.465V9.526h3.465c2.516 0 3.878 1.278 3.878 3.56 0 2.283-1.362 3.562-3.878 3.562zM52.375 21a6.908 6.908 0 01-3.375.882c-3.523 0-6.07-2.587-6.07-6.148 0-3.56 2.547-6.147 6.07-6.147 1.273-.03 2.517.395 3.553 1.156l2.813-2.13-.178-.183c-1.629-1.49-3.82-2.252-6.306-2.252-2.695 0-5.152.944-6.928 2.648a9.295 9.295 0 00-2.724 6.787c-.03 2.587.947 5.082 2.724 6.908 1.865 1.796 4.352 2.8 6.898 2.74 2.813 0 5.27-1.005 6.928-2.831l-2.517-1.917-.888.487zM157.511 6.452v18.595h3.908V17.44h8.319v7.608h3.909V6.452h-3.909v7.639h-8.319V6.452h-3.908zm-6.721 18.595h4.115l-7.639-18.595h-3.967l-7.787 18.595h3.938l1.569-3.743h8.29l1.481 3.743zm-8.586-6.847l3.02-7.457 2.842 7.457h-5.862zm40.206-.67h2.428l5.981 7.487h5.033l-7.994-9.617 6.987-8.978h-4.47l-5.803 7.973h-2.162V6.422h-3.908v18.595h3.908V17.53zm-59.806-3.835V9.556h10.214V6.452h-14.123v18.595h8.142c4.56 0 7.195-2.13 7.195-5.843 0-3.56-2.369-5.509-6.691-5.509h-4.737zm0 8.248V16.8h4.085c2.487 0 3.642.852 3.642 2.587 0 1.734-1.214 2.587-3.642 2.587h-4.085v-.031zM27.002 6.3a16.6 16.6 0 011.806 3.074L15.129 19.752l-5.743-3.713v-4.444l5.714 3.683L27.002 6.3z" fill="#6E8290"/><path d="M3.554 15.735c0-.213 0-.396.03-.609L.12 14.943c0 .244-.03.518-.03.761A15.63 15.63 0 004.5 26.63l2.458-2.526c-2.102-2.13-3.405-5.082-3.405-8.37z" fill="url(#paint0_linear)"/><path d="M15.1 3.865c.207 0 .385 0 .592.03l.178-3.56c-.237 0-.504-.03-.74-.03-4.146 0-7.906 1.734-10.63 4.534l2.458 2.526c2.072-2.16 4.974-3.5 8.142-3.5z" fill="url(#paint1_linear)"/><path d="M15.1 27.604c-.208 0-.385 0-.592-.03l-.178 3.56c.237 0 .503.03.74.03 4.145 0 7.905-1.734 10.63-4.534l-2.458-2.526a11.112 11.112 0 01-8.142 3.5z" fill="url(#paint2_linear)"/><path d="M21.613 5.935l2.931-2.222C21.97 1.583 18.682.273 15.1.273v3.562c2.428.03 4.678.791 6.513 2.1z" fill="url(#paint3_linear)"/><path d="M30.14 15.734c0-.943-.089-1.856-.237-2.77l-3.227 2.466v.304c0 3.5-1.48 6.635-3.82 8.796l2.34 2.648c3.02-2.8 4.944-6.909 4.944-11.444z" fill="#6E8290"/><path d="M15.1 27.604c-3.405 0-6.455-1.522-8.557-3.926l-2.576 2.404c2.754 3.135 6.721 5.082 11.133 5.082v-3.56z" fill="url(#paint4_linear)"/><path d="M7.373 6.939L5.034 4.291C1.984 7.121.09 11.2.09 15.735h3.464c0-3.47 1.48-6.635 3.82-8.796z" fill="url(#paint5_linear)"/><defs><linearGradient id="paint0_linear" x1="4.132" y1="26.197" x2=".467" y2="15.732" gradientUnits="userSpaceOnUse"><stop offset=".144" stop-color="#6E8290"/><stop offset=".304" stop-color="#6E8290"/><stop offset=".582" stop-color="#6E8290"/><stop offset=".891" stop-color="#6E8290"/><stop offset=".945" stop-color="#6E8290"/></linearGradient><linearGradient id="paint1_linear" x1="5.488" y1="4.437" x2="14.512" y2="1.04" gradientUnits="userSpaceOnUse"><stop offset=".059" stop-color="#6E8290"/><stop offset=".538" stop-color="#6E8290"/><stop offset=".923" stop-color="#6E8290"/></linearGradient><linearGradient id="paint2_linear" x1="14.127" y1="28.137" x2="24.852" y2="25.742" gradientUnits="userSpaceOnUse"><stop offset=".123" stop-color="#6E8290"/><stop offset=".285" stop-color="#6E8290"/><stop offset=".869" stop-color="#6E8290"/></linearGradient><linearGradient id="paint3_linear" x1="14.388" y1="2.542" x2="23.319" y2="5.264" gradientUnits="userSpaceOnUse"><stop offset=".057" stop-color="#6E8290"/><stop offset=".79" stop-color="#6E8290"/></linearGradient><linearGradient id="paint4_linear" x1="4.848" y1="26.646" x2="14.455" y2="30.192" gradientUnits="userSpaceOnUse"><stop offset=".132" stop-color="#6E8290"/><stop offset=".298" stop-color="#6E8290"/><stop offset=".531" stop-color="#6E8290"/><stop offset=".575" stop-color="#6E8290"/><stop offset=".802" stop-color="#6E8290"/><stop offset=".983" stop-color="#6E8290"/></linearGradient><linearGradient id="paint5_linear" x1="2.744" y1="16.165" x2="6.703" y2="5.992" gradientUnits="userSpaceOnUse"><stop offset=".07" stop-color="#6E8290"/><stop offset=".26" stop-color="#6E8290"/><stop offset=".922" stop-color="#6E8290"/></linearGradient></defs></svg>