<svg width="54" height="54" fill="none" xmlns="http://www.w3.org/2000/svg"><path d="M27 0C12.09 0 0 12.09 0 27c0 14.913 12.09 27 27 27 14.913 0 27-12.086 27-27C54 12.09 41.912 0 27 0zm0 48.937c-12.116 0-21.937-9.82-21.937-21.937 0-12.116 9.82-21.937 21.937-21.937 12.116 0 21.937 9.82 21.937 21.937 0 12.116-9.82 21.937-21.937 21.937zm.002-37.096c-1.934 0-3.397 1.01-3.397 2.64v14.95c0 1.632 1.463 2.638 3.397 2.638 1.886 0 3.397-1.048 3.397-2.637V14.48c0-1.591-1.51-2.639-3.397-2.639zm0 23.596a3.375 3.375 0 00-3.37 3.372 3.374 3.374 0 003.37 3.368 3.372 3.372 0 003.368-3.368c0-1.86-1.51-3.371-3.368-3.371z" fill="#E2574C"/></svg>