<svg width="166" height="25" fill="none" xmlns="http://www.w3.org/2000/svg"><path d="M22.718 10.65a10.034 10.034 0 01-5.078 8.72 10.259 10.259 0 01-10.172 0c-3.146-1.8-5.082-5.124-5.077-8.72a10.034 10.034 0 015.077-8.719 10.26 10.26 0 0110.172 0 10.035 10.035 0 015.078 8.72z" fill="#6E8290"/><path d="M11.673 5.339c.21.16 1.269.774 1.586.971l.108.076.053-.078c.111-.184.155-.331-.161-.528-.317-.196-1.376-.812-1.586-.971l-.347-.278c.132.36.22.71.347.808zm25.769-2.907v12.542c0 2.764-2.442 4.866-5.665 4.866-3.224 0-5.665-2.102-5.665-4.866V5.379a2.946 2.946 0 012.947-2.947h.208v12.52c0 1.485 1.336 2.398 2.625 2.398 1.244 0 2.579-.846 2.579-2.399V5.22c0-1.532 1.266-2.788 2.809-2.788m6.377 4.432c4.306 0 4.997 2.399 4.997 3.838v8.955h-.138c-1.59 0-2.947-1.325-2.947-2.9v-6.009c0-.846-.346-1.85-2.027-1.85-.783 0-1.243.09-1.75.273v10.486h-3.086V7.801c1.313-.571 3.432-.937 4.951-.937zm9.406 0v9.914a2.893 2.893 0 01-2.9 2.88h-.14V6.863h3.04zm-1.52-4.432c.922 0 1.658.686 1.658 1.53 0 .823-.736 1.486-1.658 1.486-.92 0-1.68-.663-1.68-1.485 0-.845.76-1.531 1.68-1.531zm10.287-.25c1.452 0 2.81.32 3.94 1.004v3.016c-.691-.891-1.683-1.508-3.27-1.508-3.133 0-5.067 3.061-5.067 6.237 0 2.992 2.027 6.26 5.066 6.26 1.336 0 2.556-.389 3.27-1.349v2.97c-.898.663-2.303 1.028-3.96 1.028-4.975 0-7.599-4.522-7.599-8.886 0-4.295 2.624-8.772 7.62-8.772zm9.39 4.682c.507 0 1.153.046 1.728.137v2.444c-1.06-.754-2.463-.502-3.086-.182v7.515c0 1.577-1.312 2.88-2.901 2.88H66.8V7.846c1.198-.572 2.418-.983 4.42-.983zm9.74 4.798c-.09-2.537-1.68-2.81-2.532-2.81h-.116c-1.726.045-2.532 1.256-2.532 3.518l5.18-.708zm2.672 1.736l-7.668 1.05c.253 2.08 1.313 3.176 3.247 3.176 2.14 0 3.223-.685 4.006-1.233v2.535c-.783.412-2.232.914-4.305.914-3.754 0-5.987-2.513-5.987-6.533 0-3.907 2.072-6.443 5.48-6.443 3.361 0 5.227 2.216 5.227 6.054m8.041-3.587a3.857 3.857 0 00-1.06-.137c-2.533 0-3.062 2.422-3.062 4.432 0 2.811.944 4.204 2.855 4.204.322 0 1.036-.07 1.267-.114V9.33zm3.016-6.899v17.066c-.736.16-3.154.342-4.168.342h-.207c-3.753-.045-5.803-2.193-5.803-6.054 0-3.906 2.142-6.42 5.458-6.42.645 0 1.197.07 1.68.184V5.334a2.898 2.898 0 012.902-2.902m4.616 4.432v9.914a2.893 2.893 0 01-2.902 2.88h-.138V6.863h3.04zm-1.52-4.432c.921 0 1.658.686 1.658 1.53 0 .823-.737 1.486-1.658 1.486-.92 0-1.68-.663-1.68-1.485 0-.845.76-1.531 1.68-1.531zm6.904 0v4.432h1.98v2.444h-1.98v6.786c0 .822.276 1.073 1.174 1.073.23 0 .575-.068.806-.16v2.536c-.138.046-.737.297-1.543.297-2.257 0-3.5-1.096-3.5-3.083V9.308h-1.335V6.864h1.335V5.31a2.887 2.887 0 012.878-2.878m19.122 7.038v9.827c-1.007.182-3.158.34-4.324.34h-.481c-5.078 0-8.51-3.268-8.51-8.918 0-5.107 3.111-8.625 7.893-8.625 1.716 0 3.111.432 4.255 1.067v2.95c-.778-.817-2.037-1.52-3.867-1.52-3.248 0-5.124 2.337-5.124 6.286 0 4.403 2.791 5.946 6.246 5.946h.915v-4.789h-2.814v-.136a2.42 2.42 0 012.424-2.428m9.045-2.723c.503 0 1.144.045 1.716.136v2.429c-1.052-.75-2.448-.5-3.065-.182v7.466c0 1.566-1.305 2.86-2.883 2.86h-.16V7.723c1.189-.567 2.402-.976 4.392-.976zm9.859 6.423c0-1.294-.32-4.403-2.722-4.403-2.47 0-2.677 3.404-2.677 4.402 0 .999.207 4.312 2.677 4.312 2.539 0 2.722-3.313 2.722-4.312zm2.837.022c0 3.926-2.127 6.445-5.559 6.445-3.431 0-5.559-2.519-5.559-6.445 0-3.972 2.082-6.445 5.559-6.445 3.477 0 5.559 2.473 5.559 6.445zm10.782-6.445v12.55c-1.121.136-3.019.34-4.14.34h-.755c-3.249 0-4.918-1.452-4.918-4.289V9.675c0-1.634 1.281-2.928 2.951-2.928h.137v8.76c0 1.225.709 1.906 1.922 1.906.594 0 1.143-.045 1.716-.113V9.675a2.898 2.898 0 012.927-2.928m8.437 6.4c0-3.041-.87-4.47-2.86-4.47-.503 0-.891.067-1.281.203v8.647c.297.113.641.159 1.076.159 2.539 0 3.065-2.497 3.065-4.54zm3.042-.091c0 3.949-2.173 6.581-5.49 6.581a6.9 6.9 0 01-1.693-.204v2.201a2.868 2.868 0 01-2.859 2.86h-.16V7.677l.068-.045c1.121-.59 2.562-.885 4.301-.885 3.637 0 5.833 2.383 5.833 6.309z" fill="#6E8290"/><path d="M11.869 7.773s1.163-1.492 1.273-1.675c.111-.183.156-.33-.16-.526-.314-.196-1.368-.807-1.577-.966-.21-.159-.173-.746.443-.868s5.967-.563 8.05-.343c2.084.22 1.8.808 1.813 1.284.012.478-.838 1.163-1.973 2.177 0 0-1.874 1.725-3.242 2.911-1.368 1.186-5.745 4.843-6.596 5.504-.85.66-4.148 3.095-4.362 3.254-.215.16-.813.638-1.14.305-.325-.333 0-.705.167-.933.165-.226 6.81-9.536 7.304-10.124z" fill="#fff"/></svg>