<svg width="98" height="35" fill="none" xmlns="http://www.w3.org/2000/svg"><path fill-rule="evenodd" clip-rule="evenodd" d="M6.658 0L4.993 4.543h23.081L29.74 0H6.658zM4.16 6.813l-1.665 4.542h23.082l1.665-4.542H4.16zm-2.493 6.813L0 18.168h23.082l1.664-4.542H1.666z" fill="#6E8290"/><mask id="a" maskUnits="userSpaceOnUse" x="34" y="6" width="64" height="29"><path d="M34.63 34.727h63.183V6.9H34.63v27.827z" fill="#fff"/></mask><g mask="url(#a)"><path fill-rule="evenodd" clip-rule="evenodd" d="M49.07 19.899v.096c1.055.385 2.063 1.06 2.59 1.492 1.632 1.348 2.352 3.13 2.352 5.44 0 3.805-2.016 6.548-5.326 7.415-1.008.289-2.062.386-4.03.386H34.63V6.9h8.875c1.823 0 3.07.096 4.173.385 3.215.867 5.326 3.082 5.326 6.595 0 1.878-.672 3.468-1.775 4.526A6.725 6.725 0 0149.07 19.9zm-8.875 2.936v7.319h3.838c1.15 0 2.206-.096 2.975-.819.767-.722 1.103-1.637 1.103-2.84 0-.915-.24-1.782-.72-2.407-.816-1.011-1.823-1.253-3.55-1.253h-3.646zm-.048-4.814h3.118c.96 0 1.439 0 1.919-.145 1.296-.385 2.111-1.54 2.111-3.129 0-1.877-.864-2.696-2.111-3.08-.528-.145-1.055-.193-2.111-.193h-2.926v6.547zm22.212 16.707V11.57h-8.011V6.9h22.26l-1.582 4.67h-7.102v23.158H62.36zm15.976 0V6.9h18.04l-1.583 4.67h-10.94v6.162h4.463c3.598 0 5.469.867 6.764 1.974 1.008.867 2.734 2.792 2.734 6.597 0 3.755-1.775 5.824-3.262 6.884-1.726 1.203-3.55 1.54-7.244 1.54h-8.972zm5.518-4.67h4.174c1.583 0 2.542-.386 3.214-1.253.336-.433.815-1.204.815-2.648 0-1.444-.48-2.455-1.439-3.177-.575-.433-1.343-.673-2.638-.673h-4.126v7.75z" fill="#6E8290"/></g></svg>