<svg width="131" height="45" fill="none" xmlns="http://www.w3.org/2000/svg"><g clip-path="url(#clip0)"><path d="M14.789 0c3.134 0 4.12 2.196 4.946 4.39l8.737 23.378c.066.182.021.482-.266.59-.289.107-4.521 1.715-4.755 1.8a.456.456 0 01-.582-.268c-.088-.225-1.845-4.976-2.042-5.507H8.754c-.19.53-1.968 5.292-2.048 5.507a.45.45 0 01-.583.269c-.25-.097-4.498-1.704-4.752-1.8a.463.463 0 01-.27-.591c.3-.816 8.322-22.26 8.731-23.378C10.628 2.23 11.647 0 14.789 0zM.456 38.995a.457.457 0 00-.456.458v5.093c0 .251.203.455.456.455h28.652a.455.455 0 00.462-.455v-5.093a.458.458 0 00-.462-.458H.456zM14.76 7.116l-4.08 11.972h8.228L14.813 7.116h-.053zm61.235 19.63c-.6.199-.997.247-1.47.247-.975 0-1.516-.377-1.516-1.355 0-1.019.687-1.36 2.037-1.36.33 0 .653.047.805.099v.73c0 .786.044 1.303.144 1.64zm3.47 1.168c-.72-1.069-.91-1.699-.91-3.047V22.13c0-1.473-.176-2.005-.574-2.542-.555-.761-1.48-1.092-3.18-1.092a14.41 14.41 0 00-3.503.41l.409 1.945c.764-.105 1.566-.194 2.132-.194 1.806 0 2.012.254 2.012 1.578v.494a5.358 5.358 0 00-1.376-.18c-2.719 0-4.155 1.3-4.155 3.45 0 2.018 1.535 3.118 3.404 3.118.698 0 1.427-.125 2.005-.356.35-.148.5-.236.952-.522.271.386.816.78 1.038.854l1.746-1.179zm26.893-1.167c-.604.198-.993.246-1.469.246-.98 0-1.528-.377-1.528-1.355 0-1.019.696-1.36 2.049-1.36.33 0 .656.047.804.099v.73c0 .786.042 1.303.144 1.64zm3.473 1.167c-.726-1.069-.911-1.699-.911-3.047V22.13c0-1.473-.179-2.005-.581-2.542-.548-.761-1.475-1.092-3.181-1.092a14.48 14.48 0 00-3.508.41l.404 1.945c.766-.105 1.57-.194 2.151-.194 1.796 0 2.009.254 2.009 1.578v.494a5.35 5.35 0 00-1.383-.18c-2.723 0-4.164 1.3-4.164 3.45 0 2.018 1.538 3.118 3.417 3.118.706 0 1.429-.125 2.001-.356.354-.148.501-.236.952-.522.275.386.819.78 1.043.854l1.751-1.179zm21.169.974s-1.491-3.103-1.855-3.81c-.411-.794-.792-1.343-1.63-1.541v-.045c.562-.105 1.009-.438 1.499-1.453.464-.99.601-1.203.874-1.44.268-.233.634-.149.634-.149l.138-1.83a6.96 6.96 0 00-1.267-.029c-.74.043-1.122.251-1.487.61-.286.273-.479.683-.719 1.153-.254.513-.455.926-.719 1.447-.262.536-.386.777-1.092.777h-.46v-8.106h-2.723v14.416h2.723v-4.145l.372-.007c.78 0 .918.191 1.33.995.483.96 1.408 3.157 1.408 3.157H131zm-76.69 0h3.142L52.7 14.713a5.836 5.836 0 00-1.78-.265c-.72 0-.978.092-1.541.265l-5.03 14.175h3.016s.407-1.243.886-2.783h5.208c.465 1.539.851 2.783.851 2.783zm-5.294-5.16l1.006-3.288c.345-1.147.87-2.968.87-2.968h.086s.487 1.887.804 2.947c.12.422.951 3.309.951 3.309h-3.717zm35.086-1.622c-.96 0-1.74.766-1.74 1.704 0 .945.78 1.706 1.74 1.706.962 0 1.74-.76 1.74-1.706 0-.938-.778-1.704-1.74-1.704zm-22.92-7.634h-2.73v14.415h2.73V14.472zm54.226 6.316c1.508.03 1.695.335 1.695 1.571v6.53h2.705V22.13c0-1.473-.176-2.005-.578-2.542-.555-.761-1.646-1.092-3.491-1.092-1.825 0-2.988.19-4.484.625v9.767h2.733v-7.977c.717-.101.844-.123 1.42-.123zm-47.475-6.573c-1.706 0-2.635.33-3.181 1.09-.402.539-.58 1.083-.58 2.56v1.256h-1.355v2.155h1.355v7.612h2.707l-.007-7.612h2.697v-2.155h-2.697l.007-1.155c0-1.322.206-1.578 2.014-1.578.195 0 .416.01.65.027l.426-2.07a15.967 15.967 0 00-2.036-.13zm21.714.135c.929-.054 3.005-.13 4.307-.13.238 0 .484.002.731.014 2.56 0 4.028 1.821 4.028 3.96 0 1.454-.682 2.42-2.28 2.995 1.88.406 2.865 1.84 2.865 3.594 0 1.287-.372 2.31-1.054 3.007-.884.85-2.223 1.327-4.007 1.327a97.04 97.04 0 01-4.59-.107V14.35zm4.307 2.361c-.451 0-1.01.009-1.563.028V20.2h1.564c.62 0 1.12-.17 1.46-.495.324-.306.493-.74.493-1.255 0-1.106-.613-1.733-1.753-1.74h-.201zm.056 9.92h.118c1.422 0 2.293-.738 2.303-2.225a1.958 1.958 0 00-.599-1.383c-.41-.402-.992-.612-1.674-.612h-1.767v4.205c.498.01 1.048.012 1.62.016z" fill="#6E8290"/></g><defs><clipPath id="clip0"><path fill="#fff" d="M0 0h131v45H0z"/></clipPath></defs></svg>