<svg width="144" height="144" viewBox="0 0 144 144" fill="none" xmlns="http://www.w3.org/2000/svg">
<g clip-path="url(#clip0)">
<path d="M134.4 9.6001H9.59997C4.29843 9.6001 0 13.8985 0 19.2001V100.8C0 106.101 4.29843 110.4 9.59997 110.4H56.7737L51.0139 129.6H45.5999V134.4H98.3997V129.6H92.9857L90.6185 121.708L86.0201 123.091L87.9736 129.6H56.026L62.299 108.689C62.517 107.962 62.3776 107.176 61.9252 106.567C61.4717 105.958 60.758 105.6 59.9998 105.6H9.59997C6.9492 105.6 4.79999 103.451 4.79999 100.8V95.9999H52.7999V91.1999H4.79999V19.2001C4.79999 16.5493 6.9492 14.4001 9.59997 14.4001H134.4C137.05 14.4001 139.2 16.5493 139.2 19.2001V91.1999H127.2V95.9999H139.2V100.8C139.2 102.166 138.617 103.468 137.599 104.379L140.8 107.954C142.835 106.132 143.997 103.531 144 100.8V19.2001C144 13.8985 139.701 9.6001 134.4 9.6001Z" fill="#41403F"/>
<path d="M129.6 81.6H134.4V86.4H129.6V81.6Z" fill="#41403F"/>
<path d="M9.59998 86.4001H50.4C51.7254 86.4001 52.8 85.3255 52.8 84.0001V60.0001C52.8 58.6747 51.7254 57.6001 50.4 57.6001H40.8C39.4746 57.6001 38.4 58.6747 38.4 60.0001V81.6001H33.6V64.8001C33.6 63.4747 32.5254 62.4001 31.2 62.4001H21.6C20.2746 62.4001 19.2 63.4747 19.2 64.8001V81.6001H9.59998V86.4001ZM43.2 62.4001H48V81.6001H43.2V62.4001ZM24 67.2001H28.8V81.6001H24V67.2001Z" fill="#41403F"/>
<path d="M71.9999 52.8001V45.6001C71.9999 44.2747 70.9253 43.2001 69.5999 43.2001H59.9999C58.6745 43.2001 57.5999 44.2747 57.5999 45.6001V62.4001H62.3999V48.0001H67.1999V52.8001H71.9999Z" fill="#41403F"/>
<path d="M91.1998 45.6002V31.2002C91.1998 29.8748 90.1252 28.8002 88.7998 28.8002H79.1998C77.8744 28.8002 76.7998 29.8748 76.7998 31.2002V48.0002H81.5998V33.6002H86.3998V45.6002H91.1998Z" fill="#41403F"/>
<path d="M110.4 50.4V40.8C110.4 39.4746 109.325 38.4 108 38.4H98.3998C97.0744 38.4 95.9998 39.4746 95.9998 40.8V48H100.8V43.2H105.6V50.4H110.4Z" fill="#41403F"/>
<path d="M127.2 24.0001H117.6C116.274 24.0001 115.2 25.0747 115.2 26.4001V55.2001H120V28.8001H124.8V69.6001H129.6V26.4001C129.6 25.0747 128.525 24.0001 127.2 24.0001Z" fill="#41403F"/>
<path d="M12 19.2002H16.8V24.0002H12V19.2002Z" fill="#41403F"/>
<path d="M21.5999 19.2002H26.3999V24.0002H21.5999V19.2002Z" fill="#41403F"/>
<path d="M31.1999 19.2002H35.9999V24.0002H31.1999V19.2002Z" fill="#41403F"/>
<path d="M120.533 100.339C128.91 85.3606 124.7 66.4781 110.753 56.4774C96.8049 46.4754 77.5698 48.5461 66.0713 61.2867C54.5717 74.0274 54.4756 93.3727 65.8498 106.226C77.2229 119.079 96.4358 121.338 110.482 111.476L131.212 132.206C134.138 135.132 138.881 135.132 141.806 132.206C144.731 129.281 144.731 124.539 141.806 121.613L120.533 100.339ZM62.3998 84C62.3998 68.0942 75.294 55.2 91.1998 55.2C107.106 55.2 120 68.0942 120 84C120 99.9059 107.106 112.8 91.1998 112.8C75.301 112.782 62.4174 99.8988 62.3998 84ZM136.509 129.6C135.796 129.601 135.11 129.319 134.606 128.813L114.206 108.413C115.514 107.177 116.722 105.839 117.818 104.412L138.408 125.002C139.181 125.77 139.414 126.929 138.998 127.936C138.582 128.944 137.599 129.601 136.509 129.6Z" fill="#41403F"/>
<path d="M91.1998 60C77.9447 60 67.1998 70.7449 67.1998 84C67.1998 97.2551 77.9447 108 91.1998 108C104.455 108 115.2 97.2551 115.2 84C115.186 70.752 104.449 60.0152 91.1998 60ZM91.1998 103.2C80.5955 103.2 71.9998 94.6043 71.9998 84C71.9998 73.3969 80.5955 64.8 91.1998 64.8C101.804 64.8 110.4 73.3969 110.4 84C110.388 94.5996 101.798 103.188 91.1998 103.2Z" fill="#41403F"/>
<path d="M76.7998 84H81.5998C81.5998 78.6984 85.8982 74.4 91.1998 74.4V69.6C83.2498 69.6082 76.808 76.0511 76.7998 84Z" fill="#41403F"/>
</g>
<defs>
<clipPath id="clip0">
<rect width="144" height="144" fill="white"/>
</clipPath>
</defs>
</svg>
