<svg width="144" height="144" viewBox="0 0 144 144" fill="none" xmlns="http://www.w3.org/2000/svg">
<g clip-path="url(#clip0)">
<path d="M142.579 88.3432C138.261 82.5856 133.943 82.5856 123.387 88.1034L120.748 89.7298V47.8002H130.344C131.304 47.8002 132.264 47.3203 132.503 46.3608C132.743 45.4013 132.503 44.4415 131.784 43.7218L88.6019 4.85798C81.1651 -1.61933 70.3696 -1.61933 63.1726 4.85798L20.2303 43.9616C19.5106 44.6813 19.2708 45.6408 19.5106 46.6006C19.7504 47.3203 20.7102 48.04 21.6697 48.04H31.5057V79.9801C25.8496 81.3658 20.3796 84.4108 16.8719 86.6517V81.6261H0.0787201V144H16.8716V136.803H48.0586C52.8567 136.803 57.8946 136.323 62.6924 135.844L93.8793 131.046C95.0789 131.046 96.2782 130.806 97.238 130.566C100.117 130.086 102.756 128.646 105.155 126.487L141.38 97.9391C144.259 95.5402 144.739 91.222 142.579 88.3432ZM27.9072 43.2419L66.2912 8.45648C71.809 3.65838 79.9655 3.65838 85.2432 8.45648L123.627 43.2419H117.87C116.43 43.2419 115.471 44.2014 115.471 45.6408V92.9819L102.756 100.818C99.9346 102.463 93.6575 102.957 87.7624 102.976C88.7992 100.862 88.2825 98.2956 86.2027 95.0601C82.3644 89.5423 75.8871 86.1839 68.9299 86.1839H68.6901H59.5738C54.5359 86.1839 49.7378 84.7445 45.8995 81.8657C43.2605 79.9464 40.1419 78.9869 36.3036 79.2267V45.6411C36.3036 44.2017 35.344 43.2422 33.9046 43.2422H27.9072V43.2419ZM12.0738 139.202H4.87682V86.4239H12.0738V90.0225V136.803V139.202ZM138.501 94.8205L102.036 123.129L101.797 123.368C100.117 124.808 98.4379 125.767 96.5189 126.007H96.2791C95.3196 126.247 94.5999 126.247 93.6401 126.247L61.9732 131.045C57.4152 131.765 52.6171 132.005 48.0591 132.005H16.8719V92.4214C20.5196 89.8375 27.2488 85.8105 33.3992 84.5474C33.7115 84.6208 34.0477 84.6171 34.3848 84.5047C36.5698 84.2134 38.4877 84.1901 40.1419 84.5904C41.0994 84.8797 41.9878 85.3202 42.7814 85.9441C47.3394 89.3027 53.097 91.2218 59.3345 91.2218H59.5743H68.6906C74.2084 91.2218 79.0063 93.6207 82.365 98.4188C83.0096 99.3856 83.3281 100.351 83.3959 101.027C83.3827 101.135 83.3593 101.228 83.3245 101.298C82.8446 102.257 80.4457 103.217 76.3673 103.217C75.8047 103.217 75.3167 103.402 74.9293 103.697C74.5812 103.697 74.2551 103.697 73.9681 103.697H53.3366C45.8997 103.697 41.3415 107.295 41.3415 113.293C41.3415 114.732 42.301 115.692 43.7404 115.692C45.1798 115.692 46.1393 114.732 46.1393 113.293C46.1393 112.093 46.1393 108.495 53.3363 108.495H73.7277C74.4058 108.495 75.302 108.495 76.6065 108.495C76.6866 108.495 76.7631 108.495 76.8463 108.495C77.0861 108.495 77.566 108.495 78.0459 108.495C89.3213 108.734 99.8767 108.495 105.395 105.616L126.026 92.901C136.102 87.8631 137.061 89.0627 138.981 91.9415C139.461 92.6614 139.461 94.1008 138.501 94.8205Z" fill="#41403F"/>
<path d="M62.4529 50.4389C67.7306 50.4389 72.0488 46.1207 72.0488 40.843C72.0488 35.5653 67.7306 31.2471 62.4529 31.2471C57.1752 31.2471 52.8569 35.5653 52.8569 40.843C52.8569 46.1207 57.1752 50.4389 62.4529 50.4389ZM62.4529 36.0449C65.0919 36.0449 67.251 38.204 67.251 40.843C67.251 43.482 65.0919 45.6411 62.4529 45.6411C59.8139 45.6411 57.6548 43.482 57.6548 40.843C57.6548 38.204 59.8139 36.0449 62.4529 36.0449Z" fill="#41403F"/>
<path d="M91.2409 60.0352C85.9632 60.0352 81.645 64.3534 81.645 69.6311C81.645 74.9088 85.9632 79.227 91.2409 79.227C96.5186 79.227 100.837 74.9088 100.837 69.6311C100.837 64.3534 96.5186 60.0352 91.2409 60.0352ZM91.2409 74.4292C88.6019 74.4292 86.4428 72.2701 86.4428 69.6311C86.4428 66.9921 88.6019 64.833 91.2409 64.833C93.8799 64.833 96.039 66.9921 96.039 69.6311C96.039 72.2701 93.8799 74.4292 91.2409 74.4292Z" fill="#41403F"/>
<path d="M55.2559 79.227C55.9756 79.227 56.4555 78.9872 56.9351 78.5073L100.117 35.3253C101.077 34.3658 101.077 32.9264 100.117 31.9666C99.1576 31.0068 97.7182 31.0071 96.7584 31.9666L53.5764 75.1486C52.6169 76.1081 52.6169 77.5475 53.5764 78.5073C54.0563 78.9872 54.5362 79.227 55.2559 79.227Z" fill="#41403F"/>
</g>
<defs>
<clipPath id="clip0">
<rect width="144" height="144" fill="white"/>
</clipPath>
</defs>
</svg>
