<svg width="144" height="144" viewBox="0 0 144 144" fill="none" xmlns="http://www.w3.org/2000/svg">
<path d="M16.7584 16.7914V141.529C16.7584 142.854 17.8325 143.928 19.1575 143.928H110.312C111.636 143.928 112.71 142.854 112.71 141.529V40.78C112.71 40.7266 112.684 40.6812 112.679 40.6288C112.667 40.4183 112.626 40.2109 112.557 40.0122C112.53 39.9352 112.511 39.8611 112.478 39.786C112.361 39.5251 112.199 39.287 111.997 39.0835L88.0098 15.0958C87.8063 14.8933 87.5672 14.7312 87.3043 14.6156C87.2322 14.585 87.1591 14.5593 87.084 14.5366C86.8834 14.4674 86.6749 14.4259 86.4625 14.4121C86.422 14.419 86.3746 14.3933 86.3242 14.3933H19.1575C17.8325 14.3933 16.7584 15.4664 16.7584 16.7914ZM104.521 38.3809H88.7222V22.5825L104.521 38.3809ZM21.5555 19.1904H83.9251V40.78C83.9251 42.104 84.9992 43.1781 86.3232 43.1781H107.913V139.131H21.5555V19.1904Z" fill="#41403F"/>
<path d="M117.508 124.737V129.534H124.704C126.029 129.534 127.103 128.461 127.103 127.136V2.39906C127.103 1.07404 126.029 0 124.704 0H33.5499C32.2249 0 31.1508 1.07404 31.1508 2.39906V9.59524H35.9489V4.79713H122.305V124.737H117.508Z" fill="#41403F"/>
<path d="M35.9489 47.9762H93.5194V52.7733H35.9489V47.9762Z" fill="#41403F"/>
<path d="M35.9489 33.5829H55.1394V38.381H35.9489V33.5829Z" fill="#41403F"/>
<path d="M35.9489 62.3687H74.3299V67.1668H35.9489V62.3687Z" fill="#41403F"/>
<path d="M79.127 62.3687H93.5194V67.1668H79.127V62.3687Z" fill="#41403F"/>
<path d="M35.9489 76.761H93.5194V81.5591H35.9489V76.761Z" fill="#41403F"/>
<path d="M35.9489 105.547H93.5194V110.345H35.9489V105.547Z" fill="#41403F"/>
<path d="M57.5375 91.1543H93.5194V95.9514H57.5375V91.1543Z" fill="#41403F"/>
<path d="M35.9489 91.1543H52.7404V95.9514H35.9489V91.1543Z" fill="#41403F"/>
<path d="M35.9489 119.94H45.5442V124.737H35.9489V119.94Z" fill="#41403F"/>
<path d="M50.3413 119.94H93.5194V124.737H50.3413V119.94Z" fill="#41403F"/>
</svg>
