<svg width="144" height="144" viewBox="0 0 144 144" fill="none" xmlns="http://www.w3.org/2000/svg">
<g clip-path="url(#clip0)">
<path d="M76.0798 0C66.1551 0 58.0798 8.07525 58.0798 18C58.0798 27.9247 66.1551 36 76.0798 36C86.0046 36 94.0798 27.9247 94.0798 18C94.0798 8.07525 86.0046 0 76.0798 0ZM76.0798 31.5C68.6346 31.5 62.5798 25.4452 62.5798 18C62.5798 10.5548 68.6346 4.5 76.0798 4.5C83.5228 4.5 89.5798 10.5548 89.5798 18C89.5798 25.4452 83.5251 31.5 76.0798 31.5Z" fill="#41403F"/>
<path d="M91.8298 24.75C90.5856 24.75 89.5798 25.7558 89.5798 27C89.5798 34.4452 83.5251 40.5 76.0798 40.5C68.6346 40.5 62.5798 34.4452 62.5798 27C62.5798 25.7558 61.5741 24.75 60.3298 24.75C59.0856 24.75 58.0798 25.7558 58.0798 27C58.0798 36.9247 66.1551 45 76.0798 45C86.0046 45 94.0798 36.9247 94.0798 27C94.0798 25.7558 93.0741 24.75 91.8298 24.75Z" fill="#41403F"/>
<path d="M76.0798 11.25C74.8356 11.25 73.8298 12.2558 73.8298 13.5V22.5C73.8298 23.7443 74.8356 24.75 76.0798 24.75C77.3218 24.75 78.3298 23.7443 78.3298 22.5V13.5C78.3298 12.2558 77.3241 11.25 76.0798 11.25Z" fill="#41403F"/>
<path d="M60.3298 15.75C59.0856 15.75 58.0798 16.7558 58.0798 18V27C58.0798 28.2443 59.0856 29.25 60.3298 29.25C61.5718 29.25 62.5798 28.2443 62.5798 27V18C62.5798 16.7558 61.5741 15.75 60.3298 15.75Z" fill="#41403F"/>
<path d="M91.8298 15.75C90.5856 15.75 89.5798 16.7558 89.5798 18V27C89.5798 28.2443 90.5856 29.25 91.8298 29.25C93.0718 29.25 94.0798 28.2443 94.0798 27V18C94.0798 16.7558 93.0741 15.75 91.8298 15.75Z" fill="#41403F"/>
<path d="M39.2473 52.2517C38.2843 51.471 36.869 51.6172 36.0816 52.5802L3.17531 93.0802C2.39456 94.0432 2.53856 95.4607 3.50381 96.246C3.92231 96.5857 4.42181 96.75 4.92131 96.75C5.57606 96.75 6.22406 96.4665 6.66956 95.9175L39.5758 55.4175C40.3566 54.4545 40.2126 53.037 39.2473 52.2517Z" fill="#41403F"/>
<path d="M72.4821 93.0825L39.5758 52.5825C38.7928 51.6195 37.3776 51.471 36.4101 52.254C35.4448 53.037 35.2986 54.4545 36.0816 55.4198L68.9878 95.9198C69.4333 96.4665 70.0813 96.75 70.7361 96.75C71.2356 96.75 71.7373 96.5858 72.1536 96.2483C73.1188 95.4653 73.2651 94.0478 72.4821 93.0825Z" fill="#41403F"/>
<path d="M39.2473 63.5018C38.2843 62.7233 36.8691 62.8673 36.0816 63.8303L6.83156 99.8303C6.05081 100.793 6.19481 102.211 7.16006 102.996C7.57856 103.336 8.07806 103.5 8.57756 103.5C9.23231 103.5 9.88031 103.217 10.3258 102.668L39.5758 66.6675C40.3566 65.7045 40.2126 64.287 39.2473 63.5018Z" fill="#41403F"/>
<path d="M68.8258 99.8324L39.5758 63.8324C38.7928 62.8694 37.3776 62.7232 36.4101 63.5039C35.4448 64.2869 35.2986 65.7044 36.0816 66.6697L65.3316 102.67C65.7771 103.216 66.4251 103.5 67.0798 103.5C67.5793 103.5 68.0811 103.336 68.4973 102.998C69.4626 102.215 69.6088 100.798 68.8258 99.8324Z" fill="#41403F"/>
<path d="M140.826 93.0825L107.92 52.5825C107.137 51.6195 105.721 51.471 104.754 52.254C103.789 53.037 103.642 54.4545 104.425 55.4198L137.332 95.9198C137.777 96.4665 138.425 96.75 139.08 96.75C139.579 96.75 140.081 96.5858 140.497 96.2483C141.463 95.4653 141.609 94.0478 140.826 93.0825Z" fill="#41403F"/>
<path d="M106.174 51.75H37.8298C36.5856 51.75 35.5798 52.7558 35.5798 54C35.5798 55.2442 36.5856 56.25 37.8298 56.25H106.174C107.416 56.25 108.424 55.2442 108.424 54C108.424 52.7558 107.418 51.75 106.174 51.75Z" fill="#41403F"/>
<path d="M139.08 92.25H70.7361C69.4918 92.25 68.4861 93.2558 68.4861 94.5C68.4861 95.7442 69.4918 96.75 70.7361 96.75H139.08C140.322 96.75 141.33 95.7442 141.33 94.5C141.33 93.2558 140.324 92.25 139.08 92.25Z" fill="#41403F"/>
<path d="M139.08 99H67.0798C65.8356 99 64.8298 100.006 64.8298 101.25C64.8298 102.494 65.8356 103.5 67.0798 103.5H139.08C140.322 103.5 141.33 102.494 141.33 101.25C141.33 100.006 140.324 99 139.08 99Z" fill="#41403F"/>
<path d="M139.08 92.25C137.836 92.25 136.83 93.2558 136.83 94.5V101.25C136.83 102.494 137.836 103.5 139.08 103.5C140.322 103.5 141.33 102.494 141.33 101.25V94.5C141.33 93.2558 140.324 92.25 139.08 92.25Z" fill="#41403F"/>
<path d="M13.0798 93.4606C11.8356 93.4606 10.8298 94.4663 10.8298 95.7106V141.75C10.8298 142.994 11.8356 144 13.0798 144C14.3218 144 15.3298 142.994 15.3298 141.75V95.7106C15.3298 94.4663 14.3241 93.4606 13.0798 93.4606Z" fill="#41403F"/>
<path d="M62.5798 93.375C61.3356 93.375 60.3298 94.3808 60.3298 95.625V141.75C60.3298 142.994 61.3356 144 62.5798 144C63.8218 144 64.8298 142.994 64.8298 141.75V95.625C64.8298 94.3808 63.8241 93.375 62.5798 93.375Z" fill="#41403F"/>
<path d="M136.83 139.5H13.0798C11.8356 139.5 10.8298 140.506 10.8298 141.75C10.8298 142.994 11.8356 144 13.0798 144H136.83C138.072 144 139.08 142.994 139.08 141.75C139.08 140.506 138.074 139.5 136.83 139.5Z" fill="#41403F"/>
<path d="M136.83 99C135.586 99 134.58 100.006 134.58 101.25V141.75C134.58 142.994 135.586 144 136.83 144C138.072 144 139.08 142.994 139.08 141.75V101.25C139.08 100.006 138.074 99 136.83 99Z" fill="#41403F"/>
<path d="M10.5531 100.179L6.89682 93.429C6.30732 92.3378 4.94157 91.9328 3.84807 92.5245C2.75682 93.114 2.34957 94.4798 2.94357 95.5733L6.59982 102.323C7.00707 103.075 7.78107 103.5 8.57982 103.5C8.94432 103.5 9.31107 103.412 9.64857 103.228C10.7398 102.638 11.1471 101.273 10.5531 100.179Z" fill="#41403F"/>
<path d="M31.0798 114.75C29.8356 114.75 28.8298 115.756 28.8298 117V141.75C28.8298 142.994 29.8356 144 31.0798 144C32.3218 144 33.3298 142.994 33.3298 141.75V117C33.3298 115.756 32.3241 114.75 31.0798 114.75Z" fill="#41403F"/>
<path d="M44.5798 114.75H31.0798C29.8356 114.75 28.8298 115.756 28.8298 117C28.8298 118.244 29.8356 119.25 31.0798 119.25H44.5798C45.8218 119.25 46.8298 118.244 46.8298 117C46.8298 115.756 45.8241 114.75 44.5798 114.75Z" fill="#41403F"/>
<path d="M44.5798 114.75C43.3356 114.75 42.3298 115.756 42.3298 117V141.75C42.3298 142.994 43.3356 144 44.5798 144C45.8218 144 46.8298 142.994 46.8298 141.75V117C46.8298 115.756 45.8241 114.75 44.5798 114.75Z" fill="#41403F"/>
<path d="M37.8298 87.75C32.8663 87.75 28.8298 91.7865 28.8298 96.75C28.8298 101.714 32.8663 105.75 37.8298 105.75C42.7933 105.75 46.8298 101.714 46.8298 96.75C46.8298 91.7865 42.7933 87.75 37.8298 87.75ZM37.8298 101.25C35.3481 101.25 33.3298 99.2318 33.3298 96.75C33.3298 94.2682 35.3481 92.25 37.8298 92.25C40.3093 92.25 42.3298 94.2682 42.3298 96.75C42.3298 99.2318 40.3116 101.25 37.8298 101.25Z" fill="#41403F"/>
<path d="M94.0798 110.25H73.8298C72.5856 110.25 71.5798 111.256 71.5798 112.5V128.25C71.5798 129.494 72.5856 130.5 73.8298 130.5H94.0798C95.3218 130.5 96.3298 129.494 96.3298 128.25V112.5C96.3298 111.256 95.3241 110.25 94.0798 110.25ZM91.8298 126H76.0798V114.75H91.8298V126Z" fill="#41403F"/>
<path d="M125.58 110.25H105.33C104.086 110.25 103.08 111.256 103.08 112.5V128.25C103.08 129.494 104.086 130.5 105.33 130.5H125.58C126.822 130.5 127.83 129.494 127.83 128.25V112.5C127.83 111.256 126.824 110.25 125.58 110.25ZM123.33 126H107.58V114.75H123.33V126Z" fill="#41403F"/>
<path d="M96.3298 58.5H62.5798C61.3356 58.5 60.3298 59.5058 60.3298 60.75C60.3298 61.9942 61.3356 63 62.5798 63H96.3298C97.5718 63 98.5798 61.9942 98.5798 60.75C98.5798 59.5058 97.5741 58.5 96.3298 58.5Z" fill="#41403F"/>
<path d="M64.3258 59.3325L58.8403 52.5825C58.0573 51.6195 56.642 51.471 55.6745 52.254C54.7093 53.037 54.563 54.4545 55.346 55.4198L60.8315 62.1698C61.277 62.7165 61.925 63 62.5798 63C63.0793 63 63.581 62.8358 63.9973 62.4983C64.9625 61.7153 65.1088 60.2978 64.3258 59.3325Z" fill="#41403F"/>
<path d="M98.0758 59.3325L92.5903 52.5825C91.8073 51.6195 90.392 51.471 89.4245 52.254C88.4593 53.037 88.313 54.4545 89.096 55.4198L94.5815 62.1698C95.027 62.7165 95.675 63 96.3298 63C96.8293 63 97.331 62.8358 97.7473 62.4983C98.7125 61.7153 98.8588 60.2978 98.0758 59.3325Z" fill="#41403F"/>
</g>
<defs>
<clipPath id="clip0">
<rect width="144" height="144" fill="white"/>
</clipPath>
</defs>
</svg>
