<svg width="166" height="31" viewBox="0 0 166 31" fill="none" xmlns="http://www.w3.org/2000/svg">
<rect x="0.5" y="0.5" width="165" height="30" stroke="black"/>
<path d="M44.1 23V10.4H38.8L38.72 13.22C38.6533 15.1533 38.5067 16.76 38.28 18.04C38.0667 19.3067 37.7533 20.3067 37.34 21.04C36.94 21.76 36.44 22.2733 35.84 22.58C35.24 22.8867 34.5267 23.04 33.7 23.04V21.46C34.2067 21.46 34.6533 21.3333 35.04 21.08C35.4267 20.8267 35.7533 20.3867 36.02 19.76C36.3 19.12 36.52 18.2333 36.68 17.1C36.84 15.9667 36.9467 14.52 37 12.76L37.12 8.8H45.9V23H44.1ZM53.5894 23.2C52.5494 23.2 51.6294 22.9533 50.8294 22.46C50.0427 21.9533 49.4294 21.2933 48.9894 20.48C48.5494 19.6533 48.3294 18.76 48.3294 17.8C48.3294 16.8267 48.5494 15.9333 48.9894 15.12C49.4427 14.2933 50.0627 13.6333 50.8494 13.14C51.6494 12.6333 52.5627 12.38 53.5894 12.38C54.6294 12.38 55.5427 12.6333 56.3294 13.14C57.1294 13.6333 57.7494 14.2933 58.1894 15.12C58.6427 15.9333 58.8694 16.8267 58.8694 17.8C58.8694 18.76 58.6427 19.6533 58.1894 20.48C57.7494 21.2933 57.136 21.9533 56.3494 22.46C55.5627 22.9533 54.6427 23.2 53.5894 23.2ZM50.1294 17.82C50.1294 18.54 50.2827 19.1933 50.5894 19.78C50.9094 20.3667 51.3294 20.8333 51.8494 21.18C52.3694 21.5133 52.9494 21.68 53.5894 21.68C54.2294 21.68 54.8094 21.5067 55.3294 21.16C55.8627 20.8133 56.2827 20.3467 56.5894 19.76C56.9094 19.16 57.0694 18.5 57.0694 17.78C57.0694 17.06 56.9094 16.4067 56.5894 15.82C56.2827 15.2333 55.8627 14.7667 55.3294 14.42C54.8094 14.0733 54.2294 13.9 53.5894 13.9C52.9494 13.9 52.3694 14.08 51.8494 14.44C51.3294 14.7867 50.9094 15.2533 50.5894 15.84C50.2827 16.4267 50.1294 17.0867 50.1294 17.82ZM60.982 23V12.56H67.422V14.12H62.742V23H60.982ZM73.7847 23.2C72.7447 23.2 71.8247 22.9533 71.0247 22.46C70.238 21.9533 69.6247 21.2933 69.1847 20.48C68.7447 19.6533 68.5247 18.76 68.5247 17.8C68.5247 16.8267 68.7447 15.9333 69.1847 15.12C69.638 14.2933 70.258 13.6333 71.0447 13.14C71.8447 12.6333 72.758 12.38 73.7847 12.38C74.8247 12.38 75.738 12.6333 76.5247 13.14C77.3247 13.6333 77.9447 14.2933 78.3847 15.12C78.838 15.9333 79.0647 16.8267 79.0647 17.8C79.0647 18.76 78.838 19.6533 78.3847 20.48C77.9447 21.2933 77.3314 21.9533 76.5447 22.46C75.758 22.9533 74.838 23.2 73.7847 23.2ZM70.3247 17.82C70.3247 18.54 70.478 19.1933 70.7847 19.78C71.1047 20.3667 71.5247 20.8333 72.0447 21.18C72.5647 21.5133 73.1447 21.68 73.7847 21.68C74.4247 21.68 75.0047 21.5067 75.5247 21.16C76.058 20.8133 76.478 20.3467 76.7847 19.76C77.1047 19.16 77.2647 18.5 77.2647 17.78C77.2647 17.06 77.1047 16.4067 76.7847 15.82C76.478 15.2333 76.058 14.7667 75.5247 14.42C75.0047 14.0733 74.4247 13.9 73.7847 13.9C73.1447 13.9 72.5647 14.08 72.0447 14.44C71.5247 14.7867 71.1047 15.2533 70.7847 15.84C70.478 16.4267 70.3247 17.0867 70.3247 17.82ZM83.7373 23V14.12H80.1373V12.56H89.0973V14.12H85.4973V23H83.7373ZM90.8453 23V12.58H92.6053V20.64L98.4453 12.56H100.045V23H98.2853V15.1L92.5253 23H90.8453ZM102.838 23V12.56H111.498V23H109.738V14.12H104.598V23H102.838Z" fill="#0C0B0B"/>
</svg>
