<svg width="166" height="25" viewBox="0 0 166 25" fill="none" xmlns="http://www.w3.org/2000/svg">
<path d="M22.7179 10.6505C22.7232 14.246 20.7873 17.5706 17.6405 19.3699C14.4938 21.1692 10.6152 21.1692 7.46847 19.3699C4.3217 17.5706 2.38575 14.246 2.39112 10.6505C2.38575 7.05495 4.3217 3.73029 7.46847 1.93101C10.6152 0.131721 14.4938 0.131721 17.6405 1.93101C20.7873 3.73029 22.7232 7.05495 22.7179 10.6505Z" fill="#6E8290"/>
<path d="M11.6729 5.33867C11.8834 5.49843 12.9417 6.1133 13.2589 6.30998L13.3669 6.38623L13.42 6.30816C13.531 6.12419 13.5749 5.97652 13.2589 5.77984C12.9417 5.58376 11.8834 4.9683 11.6729 4.80853L11.3264 4.53075C11.4582 4.89023 11.5454 5.24184 11.6729 5.33867Z" fill="#6E8290"/>
<path d="M37.4416 2.43214V14.9739C37.4416 17.7383 35.0004 19.8401 31.777 19.8401C28.5531 19.8401 26.1118 17.7383 26.1118 14.9739V5.37936C26.1118 3.75688 27.4246 2.43214 29.0594 2.43214H29.2668V14.9515C29.2668 16.4372 30.6028 17.3498 31.8923 17.3498C33.1355 17.3498 34.4709 16.5043 34.4709 14.9515V5.21959C34.4709 3.68849 35.7373 2.43214 37.28 2.43214" fill="#6E8290"/>
<path d="M43.6572 6.86376C47.9633 6.86376 48.6538 9.26269 48.6538 10.7018V19.6572H48.516C46.9269 19.6572 45.569 18.3319 45.569 16.7566V10.7484C45.569 9.90236 45.2231 8.89716 43.5419 8.89716C42.7592 8.89716 42.2987 8.98854 41.7918 9.17131V19.6572H38.7063V7.80058C40.0191 7.22989 42.1376 6.86376 43.6572 6.86376Z" fill="#6E8290"/>
<path d="M53.0635 6.86376V16.7784C53.0635 18.3549 51.774 19.6572 50.1623 19.6572H50.0238V6.86376H53.0635ZM51.5434 2.43204C52.4645 2.43204 53.2014 3.11771 53.2014 3.96254C53.2014 4.78498 52.4645 5.44765 51.5434 5.44765C50.6229 5.44765 49.8628 4.78498 49.8628 3.96254C49.8628 3.11771 50.6229 2.43204 51.5434 2.43204Z" fill="#6E8290"/>
<path d="M61.8309 2.1816C63.2821 2.1816 64.64 2.50113 65.7692 3.18619V6.2018C65.0786 5.31097 64.0873 4.6943 62.4995 4.6943C59.367 4.6943 57.4333 7.75529 57.4333 10.9307C57.4333 13.9233 59.4598 17.1906 62.4995 17.1906C63.8348 17.1906 65.0554 16.8021 65.7692 15.8423V18.8119C64.8706 19.4746 63.4663 19.8401 61.8083 19.8401C56.8343 19.8401 54.21 15.3176 54.21 10.9537C54.21 6.65871 56.8343 2.1816 61.8309 2.1816Z" fill="#6E8290"/>
<path d="M71.2208 6.86376C71.7271 6.86376 72.3725 6.90975 72.9478 7.00114V9.44545C71.8888 8.6914 70.4845 8.94315 69.8623 9.26269V16.7784C69.8623 18.3549 68.5502 19.6572 66.9605 19.6572H66.8V7.84657C67.9975 7.27528 69.2182 6.86376 71.2208 6.86376Z" fill="#6E8290"/>
<path d="M80.9609 11.6617C80.8694 9.12541 79.2803 8.85187 78.4275 8.85187H78.3122C76.5859 8.89726 75.78 10.1082 75.78 12.3698L80.9609 11.6617ZM83.6322 13.398L75.9637 14.448C76.2174 16.5273 77.277 17.6239 79.2108 17.6239C81.3519 17.6239 82.4341 16.9389 83.2174 16.3906V18.9263C82.4341 19.3378 80.9847 19.8401 78.9119 19.8401C75.1584 19.8401 72.9246 17.3274 72.9246 13.3066C72.9246 9.40016 74.9968 6.86386 78.4049 6.86386C81.7661 6.86386 83.6322 9.08002 83.6322 12.9181" fill="#6E8290"/>
<path d="M91.6728 9.33117C91.3507 9.24039 91.0049 9.1944 90.6138 9.1944C88.0804 9.1944 87.5509 11.6163 87.5509 13.6261C87.5509 16.4372 88.4953 17.8297 90.4064 17.8297C90.7279 17.8297 91.4416 17.7607 91.6728 17.7159V9.33117ZM94.6894 2.43214V19.4976C93.9525 19.6573 91.535 19.8401 90.5211 19.8401H90.3143C86.5609 19.7947 84.5112 17.6469 84.5112 13.7859C84.5112 9.88007 86.653 7.36676 89.9691 7.36676C90.6138 7.36676 91.1659 7.43575 91.6496 7.54953V5.33397C91.6496 3.73509 92.9392 2.43214 94.5509 2.43214" fill="#6E8290"/>
<path d="M99.1669 6.86376V16.7784C99.1669 18.3549 97.8768 19.6572 96.2651 19.6572H96.1272V6.86376H99.1669ZM97.6468 2.43204C98.5685 2.43204 99.3054 3.11771 99.3054 3.96254C99.3054 4.78498 98.5685 5.44765 97.6468 5.44765C96.7263 5.44765 95.9668 4.78498 95.9668 3.96254C95.9668 3.11771 96.7263 2.43204 97.6468 2.43204Z" fill="#6E8290"/>
<path d="M104.551 2.43214V6.86386H106.531V9.30817H104.551V16.094C104.551 16.9159 104.827 17.167 105.725 17.167C105.955 17.167 106.3 17.0986 106.531 17.0079V19.5429C106.393 19.5889 105.794 19.8401 104.988 19.8401C102.731 19.8401 101.488 18.7435 101.488 16.7567V9.30817H100.153V6.86386H101.488V5.31037C101.488 3.73449 102.777 2.43214 104.366 2.43214" fill="#6E8290"/>
<path d="M123.488 9.47021V19.2965C122.481 19.4787 120.33 19.6372 119.164 19.6372H118.683C113.605 19.6372 110.173 16.3692 110.173 10.7187C110.173 5.6122 113.284 2.09431 118.066 2.09431C119.782 2.09431 121.177 2.5258 122.321 3.16123V6.11148C121.543 5.29449 120.284 4.59066 118.454 4.59066C115.206 4.59066 113.33 6.92847 113.33 10.8773C113.33 15.2799 116.121 16.8231 119.576 16.8231H120.491V12.0344H117.677V11.8982C117.677 10.5595 118.752 9.47021 120.101 9.47021" fill="#6E8290"/>
<path d="M129.146 6.74707C129.649 6.74707 130.29 6.79246 130.862 6.88324V9.31182C129.81 8.5626 128.414 8.81194 127.797 9.12966V16.5963C127.797 18.1619 126.492 19.4558 124.914 19.4558H124.754V7.72322C125.943 7.15557 127.156 6.74707 129.146 6.74707Z" fill="#6E8290"/>
<path d="M139.005 13.1692C139.005 11.8759 138.685 8.76651 136.283 8.76651C133.813 8.76651 133.606 12.1706 133.606 13.1692C133.606 14.1677 133.813 17.4811 136.283 17.4811C138.822 17.4811 139.005 14.1677 139.005 13.1692ZM141.842 13.1916C141.842 17.118 139.715 19.6367 136.283 19.6367C132.852 19.6367 130.724 17.118 130.724 13.1916C130.724 9.2204 132.806 6.74703 136.283 6.74703C139.76 6.74703 141.842 9.2204 141.842 13.1916Z" fill="#6E8290"/>
<path d="M152.624 6.74692V19.2965C151.503 19.4333 149.605 19.6372 148.484 19.6372H147.729C144.48 19.6372 142.811 18.1848 142.811 15.3483V9.67477C142.811 8.04079 144.092 6.74692 145.762 6.74692H145.899V15.5069C145.899 16.7324 146.608 17.4132 147.821 17.4132C148.415 17.4132 148.964 17.3678 149.537 17.3V9.67477C149.537 8.04079 150.817 6.74692 152.464 6.74692" fill="#6E8290"/>
<path d="M160.901 13.1468C160.901 10.1058 160.031 8.67636 158.041 8.67636C157.538 8.67636 157.15 8.74414 156.76 8.8803V17.5271C157.057 17.6403 157.401 17.6856 157.836 17.6856C160.375 17.6856 160.901 15.1893 160.901 13.1468ZM163.943 13.056C163.943 17.0048 161.77 19.6373 158.453 19.6373C157.789 19.6373 157.195 19.5466 156.76 19.4334V21.6344C156.76 23.2006 155.479 24.4939 153.901 24.4939H153.741V7.67721L153.809 7.63243C154.93 7.04238 156.371 6.74705 158.11 6.74705C161.747 6.74705 163.943 9.13024 163.943 13.056Z" fill="#6E8290"/>
<path d="M11.8688 7.77346C11.8688 7.77346 13.0317 6.28134 13.1422 6.09828C13.2533 5.91463 13.2976 5.7677 12.9826 5.57201C12.6675 5.37631 11.6139 4.76513 11.4045 4.60616C11.1951 4.44719 11.2315 3.8601 11.8481 3.73786C12.4642 3.61563 17.8152 3.17546 19.8983 3.39524C21.982 3.61563 21.6985 4.20272 21.7107 4.67902C21.7228 5.15652 20.8725 5.84177 19.738 6.85639C19.738 6.85639 17.8644 8.58094 16.4957 9.76717C15.1276 10.9534 10.7514 14.6102 9.9004 15.2708C9.04944 15.9314 5.75182 18.3658 5.53756 18.5254C5.32331 18.6844 4.72484 19.1625 4.3989 18.8295C4.07296 18.4965 4.3989 18.125 4.5646 17.8974C4.7297 17.671 11.3759 8.36116 11.8688 7.77346Z" fill="white"/>
</svg>
