<svg width="166" height="44" viewBox="0 0 166 44" fill="none" xmlns="http://www.w3.org/2000/svg">
<g clip-path="url(#clip0)">
<path fill-rule="evenodd" clip-rule="evenodd" d="M0 0.751953H43.629V44.0001H0V0.751953Z" fill="#6E8290"/>
<path fill-rule="evenodd" clip-rule="evenodd" d="M1.2619 2.00171H42.3671V42.749H1.2619V2.00171Z" fill="#6E8290"/>
<path fill-rule="evenodd" clip-rule="evenodd" d="M3.44284 34.5162L8.80496 39.9345L21.3682 27.2993L34.3518 40.1948L39.7923 34.8542L26.9391 22.115L29.41 19.7444V14.6903L30.9609 13.3879V17.3475L32.9586 18.9626L38.9243 13.049L40.8426 14.5077C41.9732 10.3655 35.4285 0.960518 30.0145 6.17097L23.7059 12.3711L24.9943 13.9085L21.7876 17.0085L18.6867 13.9862L20.316 12.5265L13.4039 5.90975C8.20046 1.66274 2.86479 8.12501 2.6806 14.429L4.5725 12.8664L10.3804 19.0674L12.4565 17.3484V13.5443L13.7439 14.5077V19.4841L16.2668 21.9849L3.44284 34.5162Z" fill="white"/>
<path fill-rule="evenodd" clip-rule="evenodd" d="M54.7726 5.93608V9.68779H56.4019C58.6357 9.27115 58.0312 6.09244 56.4019 5.93608H54.7726ZM50.1472 2.21058V19.1977H54.7726V13.6745L58.7151 19.1977H64.1821L59.3205 12.3984C64.9452 9.68873 62.8427 2.28923 56.929 2.21152H50.1472V2.21058ZM71.5409 10.7037C73.0654 10.7037 74.2999 11.8497 74.2999 13.2569C74.2999 14.6632 73.0645 15.8102 71.5409 15.8102C70.0429 15.8102 68.8074 14.6632 68.8074 13.2569C68.8074 11.8497 70.0429 10.7037 71.5409 10.7037ZM70.568 6.95196C71.8299 6.95196 73.0125 7.36861 73.9844 8.04554V7.39482H78.505L78.5314 19.1968H73.958L73.9844 18.4674C73.0125 19.1443 71.8299 19.5357 70.568 19.5357C67.2036 19.5357 64.4446 16.7221 64.4446 13.2569C64.4446 9.79172 67.2046 6.95196 70.568 6.95196ZM80.9239 7.39482H85.7335V19.1968H80.9239V7.39482ZM83.341 0.646981C84.7351 0.646981 85.8648 1.793 85.8648 3.17403C85.8648 4.55505 84.7351 5.70107 83.341 5.70107C81.9223 5.70107 80.7917 4.55412 80.7917 3.17403C80.7926 1.79394 81.9223 0.646981 83.341 0.646981ZM119.848 7.39482H124.658V19.1968H119.848V7.39482ZM122.24 0.646981C123.659 0.646981 124.789 1.793 124.789 3.17403C124.789 4.55505 123.659 5.70107 122.24 5.70107C120.847 5.70107 119.717 4.55412 119.717 3.17403C119.717 1.79394 120.847 0.646981 122.24 0.646981ZM86.627 7.39482V11.1465H88.2828V19.1968H92.9356V11.1465H97.2984V19.1968H102.108V11.095H105.104V7.44725H101.976V4.81628C101.897 3.85284 104.184 3.46147 104.973 4.24327V0.386692C100.557 -0.994335 96.9829 1.48121 97.0084 5.31064V7.39482H92.9082V4.81628C92.8553 3.85284 94.8539 3.46147 96.0091 4.24327V0.386692C92.1714 -0.733111 88.0722 1.11606 88.0986 5.28442V7.3686L86.627 7.39482ZM111.963 19.5357C116.09 19.5095 117.613 17.8167 118.508 15.3411H114.329C112.436 17.738 109.676 15.9928 109.809 14.0387H118.64C118.64 9.24493 116.063 6.97817 111.964 6.97817C107.865 6.97817 105.289 9.84415 105.289 13.3356C105.289 16.827 108.284 19.5619 111.963 19.5357ZM110.412 11.2514C110.465 9.81794 113.619 9.81794 113.829 11.2514H110.412ZM144.711 19.5357C148.863 19.5095 150.389 17.8167 151.281 15.3411H147.076C145.184 17.738 142.424 15.9928 142.557 14.0387H151.388C151.388 9.24493 148.839 6.97817 144.712 6.97817C140.612 6.97817 138.037 9.84415 138.037 13.3356C138.037 16.827 141.031 19.5619 144.711 19.5357ZM143.16 11.2514C143.213 9.81794 146.367 9.81794 146.577 11.2514H143.16ZM136.774 7.62983L135.355 10.4958C133.568 9.94808 131.832 10.0529 131.885 10.5473C131.938 10.86 131.649 11.4068 134.435 11.7982C138.587 12.4489 138.246 20.1087 131.281 19.5357C129.362 19.4055 127.812 18.9102 126.524 18.1547L128.075 15.0799C130.257 16.1482 132.359 16.7736 132.516 15.7053C132.7 14.3767 130.23 14.8458 128.732 13.7251C126.051 12.0838 127.574 7.00345 131.965 6.95102C133.515 6.84803 135.118 7.10832 136.774 7.62983ZM153.227 7.39482V19.1968H157.722V11.9798C157.853 10.1822 161.428 9.86943 161.454 11.9798V19.1968H166V11.7982C165.895 7.65605 161.506 5.64958 157.537 8.28055V7.39482H153.227ZM52.8014 26.4137L49.8053 43.9214H58.2948C64.0508 43.9214 66.4159 36.8355 62.3157 34.4124C65.8114 31.2075 64.0243 26.3884 60.266 26.336L52.8014 26.4137ZM56.2442 36.8608L55.6397 39.753H57.6109C59.8448 39.8569 59.5822 36.8608 58.2948 36.8608H56.2442ZM57.2426 30.582L56.7438 32.9274L57.3483 32.9527C59.1619 33.0566 60.2131 30.582 58.0312 30.582H57.2426ZM64.234 43.9476H69.3855L70.9364 40.8728H76.7708L77.6379 44H82.3946L78.2688 26.5176H73.4064L64.234 43.9476ZM72.6186 37.1997H75.8253L74.8005 32.5876L72.6186 37.1997ZM84.0248 44H88.7825L89.9905 33.0314L96.7978 43.9476H101.896L104.025 26.4127H99.2687L97.9284 37.3814L91.1202 26.3603H86.2058L84.0248 44ZM107.443 26.3612L104.105 43.9476H109.125L110.465 37.3814L114.959 43.9476H121.556L115.117 34.7242L123.344 26.335H116.957L111.332 32.5351L112.226 26.335L107.443 26.3612Z" fill="#6E8290"/>
</g>
<defs>
<clipPath id="clip0">
<rect width="166" height="44" fill="white"/>
</clipPath>
</defs>
</svg>
