<svg width="196" height="33" viewBox="0 0 196 33" fill="none" xmlns="http://www.w3.org/2000/svg">
<path d="M87.6375 9.52591L91.7233 6.42163H78.0447V25.0169H91.7233V21.9126H81.9528V17.1649H90.3021V14.0606H81.9528V9.52591H87.6375Z" fill="#6E8290"/>
<path d="M67.7118 13.6649H62.9746V9.52591H70.5541L74.6399 6.42163H59.0664V25.0169H67.2084C71.768 25.0169 74.403 22.8865 74.403 19.1735C74.403 15.6127 72.0344 13.6649 67.7118 13.6649ZM67.0604 21.9126H62.9746V16.7692H67.0604C69.5474 16.7692 70.7021 17.6214 70.7021 19.3561C70.7021 21.0909 69.4586 21.9126 67.0604 21.9126Z" fill="#6E8290"/>
<path d="M102.796 6.42163H95.365V25.0169H99.2731V19.7518H102.826C107.563 19.7518 110.524 17.1953 110.524 13.0867C110.524 8.97809 107.563 6.42163 102.796 6.42163ZM102.708 16.6475H99.2435V9.52591H102.708C105.224 9.52591 106.586 10.8041 106.586 13.0867C106.586 15.3693 105.224 16.6475 102.708 16.6475Z" fill="#6E8290"/>
<path d="M52.3752 20.9996C51.339 21.5779 50.1843 21.8822 49 21.8822C45.4767 21.8822 42.9305 19.2953 42.9305 15.7345C42.9305 12.1737 45.4767 9.58684 49 9.58684C50.2731 9.55641 51.5166 9.98248 52.5529 10.7433L55.3656 8.61295L55.1879 8.43034C53.5595 6.93907 51.3686 6.17822 48.8816 6.17822C46.1873 6.17822 43.7299 7.12168 41.9535 8.82599C40.177 10.5912 39.1704 13.0563 39.2296 15.6128C39.2 18.1997 40.177 20.6953 41.9535 22.5213C43.8187 24.3169 46.3057 25.3213 48.852 25.2604C51.6646 25.2604 54.122 24.2561 55.7801 22.43L53.2634 20.5127L52.3752 20.9996Z" fill="#6E8290"/>
<path d="M157.511 6.45206V25.0473H161.419V17.4388H169.738V25.0473H173.647V6.45206H169.738V14.091H161.419V6.45206H157.511ZM150.79 25.0473H154.905L147.266 6.45206H143.299L135.512 25.0473H139.45L141.019 21.3039H149.309L150.79 25.0473ZM142.204 18.1996L145.224 10.7433L148.066 18.1996H142.204ZM182.41 17.5301H184.838L190.819 25.0169H195.852L187.858 15.3997L194.845 6.42163H190.375L184.572 14.3954H182.41V6.42163H178.502V25.0169H182.41V17.5301ZM122.604 13.6954V9.55634H132.818V6.45206H118.695V25.0473H126.837C131.397 25.0473 134.032 22.9169 134.032 19.2039C134.032 15.6432 131.663 13.6954 127.341 13.6954H122.604ZM122.604 21.943V16.7997H126.689C129.176 16.7997 130.331 17.6518 130.331 19.3866C130.331 21.1213 129.117 21.9735 126.689 21.9735H122.604V21.943Z" fill="#6E8290"/>
<path d="M27.0018 6.2998C27.7124 7.24326 28.3045 8.27802 28.8079 9.37365L15.1293 19.7517L9.3855 16.0387V11.5953L15.0997 15.2779L27.0018 6.2998Z" fill="#6E8290"/>
<path d="M3.55398 15.7346C3.55398 15.5216 3.55398 15.339 3.58359 15.126L0.119543 14.9434C0.119543 15.1868 0.0899353 15.4607 0.0899353 15.7042C0.0899353 19.965 1.77755 23.8301 4.50142 26.63L6.95882 24.104C4.8567 21.9736 3.55398 19.0215 3.55398 15.7346Z" fill="url(#paint0_linear)"/>
<path d="M15.0997 3.86523C15.307 3.86523 15.4846 3.86523 15.6919 3.89567L15.8695 0.334877C15.6327 0.334877 15.3662 0.304443 15.1293 0.304443C10.9843 0.304443 7.2242 2.03919 4.50034 4.83912L6.95774 7.36515C9.03024 5.20433 11.9318 3.86523 15.0997 3.86523Z" fill="url(#paint1_linear)"/>
<path d="M15.0997 27.6039C14.8924 27.6039 14.7148 27.6039 14.5075 27.5735L14.3299 31.1343C14.5668 31.1343 14.8332 31.1647 15.0701 31.1647C19.2151 31.1647 22.9752 29.43 25.6991 26.63L23.2417 24.104C21.1692 26.2953 18.2973 27.6039 15.0997 27.6039Z" fill="url(#paint2_linear)"/>
<path d="M21.6133 5.93466L24.5444 3.71298C21.9686 1.58259 18.6821 0.273926 15.0997 0.273926V3.83471C17.5275 3.86515 19.7776 4.626 21.6133 5.93466Z" fill="url(#paint3_linear)"/>
<path d="M30.1401 15.7343C30.1401 14.7909 30.0513 13.8779 29.9033 12.9648L26.6761 15.43C26.6761 15.5213 26.6761 15.643 26.6761 15.7343C26.6761 19.2343 25.1957 22.369 22.8568 24.5298L25.1957 27.1776C28.2157 24.3776 30.1401 20.269 30.1401 15.7343Z" fill="#6E8290"/>
<path d="M15.0997 27.6037C11.6948 27.6037 8.64529 26.082 6.54318 23.6777L3.96735 26.082C6.72082 29.2167 10.6882 31.1645 15.0997 31.1645V27.6037Z" fill="url(#paint4_linear)"/>
<path d="M7.37332 6.93903L5.03435 4.29126C1.9848 7.12163 0.0899353 11.1998 0.0899353 15.7345H3.55398C3.55398 12.265 5.03435 9.09985 7.37332 6.93903Z" fill="url(#paint5_linear)"/>
<defs>
<linearGradient id="paint0_linear" x1="4.13176" y1="26.1968" x2="0.466826" y2="15.7322" gradientUnits="userSpaceOnUse">
<stop offset="0.1444" stop-color="#6E8290"/>
<stop offset="0.3037" stop-color="#6E8290"/>
<stop offset="0.5823" stop-color="#6E8290"/>
<stop offset="0.891" stop-color="#6E8290"/>
<stop offset="0.944629" stop-color="#6E8290"/>
</linearGradient>
<linearGradient id="paint1_linear" x1="5.48777" y1="4.43732" x2="14.5124" y2="1.04013" gradientUnits="userSpaceOnUse">
<stop offset="0.0592" stop-color="#6E8290"/>
<stop offset="0.5385" stop-color="#6E8290"/>
<stop offset="0.9234" stop-color="#6E8290"/>
</linearGradient>
<linearGradient id="paint2_linear" x1="14.1265" y1="28.1365" x2="24.8519" y2="25.742" gradientUnits="userSpaceOnUse">
<stop offset="0.1226" stop-color="#6E8290"/>
<stop offset="0.2846" stop-color="#6E8290"/>
<stop offset="0.8693" stop-color="#6E8290"/>
</linearGradient>
<linearGradient id="paint3_linear" x1="14.3879" y1="2.54189" x2="23.319" y2="5.26391" gradientUnits="userSpaceOnUse">
<stop offset="0.0566" stop-color="#6E8290"/>
<stop offset="0.79" stop-color="#6E8290"/>
</linearGradient>
<linearGradient id="paint4_linear" x1="4.84813" y1="26.6462" x2="14.4546" y2="30.1917" gradientUnits="userSpaceOnUse">
<stop offset="0.1324" stop-color="#6E8290"/>
<stop offset="0.2977" stop-color="#6E8290"/>
<stop offset="0.5306" stop-color="#6E8290"/>
<stop offset="0.574815" stop-color="#6E8290"/>
<stop offset="0.8023" stop-color="#6E8290"/>
<stop offset="0.9829" stop-color="#6E8290"/>
</linearGradient>
<linearGradient id="paint5_linear" x1="2.74417" y1="16.1646" x2="6.70285" y2="5.99221" gradientUnits="userSpaceOnUse">
<stop offset="0.0698" stop-color="#6E8290"/>
<stop offset="0.2599" stop-color="#6E8290"/>
<stop offset="0.9216" stop-color="#6E8290"/>
</linearGradient>
</defs>
</svg>
