<svg width="131" height="45" viewBox="0 0 131 45" fill="none" xmlns="http://www.w3.org/2000/svg">
<g clip-path="url(#clip0)">
<path d="M14.7885 -2.67029e-05C17.9231 -2.67029e-05 18.9081 2.19646 19.7345 4.38951C20.0816 5.32078 28.2274 27.1136 28.4723 27.7677C28.5375 27.9501 28.4934 28.2497 28.2062 28.3581C27.9173 28.4648 23.6849 30.0726 23.4506 30.1587C23.2162 30.2465 22.9537 30.1191 22.8691 29.8901C22.781 29.6646 21.0243 24.9136 20.8269 24.3834H8.75366C8.56336 24.9136 6.7855 29.675 6.70621 29.8901C6.62515 30.1088 6.37319 30.2568 6.12298 30.1587C5.87278 30.0623 1.62458 28.4545 1.37085 28.3581C1.12769 28.2652 1.01668 27.9949 1.10126 27.7677C1.4008 26.9517 9.42322 5.50841 9.83201 4.38951C10.6284 2.22917 11.6469 -2.67029e-05 14.7885 -2.67029e-05ZM0.456365 38.9946C0.202636 38.9946 5.72205e-06 39.2011 5.72205e-06 39.4525V44.546C5.72205e-06 44.7974 0.202636 45.0005 0.456365 45.0005H29.1084C29.3674 45.0005 29.57 44.7974 29.57 44.546V39.4525C29.57 39.2011 29.3674 38.9946 29.1084 38.9946H0.456365ZM14.7603 7.11619L10.6795 19.0884H18.9081L14.8132 7.11619H14.7603ZM75.9954 26.7469C75.3946 26.9449 74.9981 26.9931 74.5259 26.9931C73.5497 26.9931 73.0088 26.6161 73.0088 25.6383C73.0088 24.6193 73.696 24.2784 75.0457 24.2784C75.3752 24.2784 75.6994 24.3249 75.8509 24.3765V25.1064C75.8509 25.8931 75.895 26.4095 75.9954 26.7469ZM79.4648 27.914C78.7441 26.845 78.5556 26.215 78.5556 24.8671V22.1301C78.5556 20.6566 78.3794 20.1247 77.9812 19.5876C77.4261 18.8268 76.5011 18.4963 74.8008 18.4963C73.5973 18.4963 72.4291 18.6237 71.2979 18.906L71.7067 20.8511C72.4714 20.7461 73.2731 20.6566 73.8387 20.6566C75.6448 20.6566 75.8509 20.9114 75.8509 22.2351V22.7292C75.4492 22.6242 74.9981 22.5484 74.4748 22.5484C71.756 22.5484 70.32 23.8481 70.32 25.9998C70.32 28.0173 71.8547 29.1172 73.7242 29.1172C74.4219 29.1172 75.1514 28.9916 75.7293 28.7609C76.0782 28.6129 76.2297 28.5251 76.6808 28.2393C76.9522 28.6249 77.4966 29.0191 77.7186 29.0931L79.4648 27.914ZM106.358 26.7469C105.754 26.9449 105.365 26.9931 104.889 26.9931C103.909 26.9931 103.361 26.6161 103.361 25.6383C103.361 24.6193 104.057 24.2784 105.41 24.2784C105.74 24.2784 106.066 24.3249 106.214 24.3765V25.1064C106.214 25.8931 106.256 26.4095 106.358 26.7469ZM109.831 27.914C109.105 26.845 108.92 26.215 108.92 24.8671V22.1301C108.92 20.6566 108.741 20.1247 108.339 19.5876C107.791 18.8268 106.864 18.4963 105.158 18.4963C103.957 18.4963 102.781 18.6237 101.65 18.906L102.054 20.8511C102.82 20.7461 103.624 20.6566 104.205 20.6566C106.001 20.6566 106.214 20.9114 106.214 22.2351V22.7292C105.812 22.6242 105.365 22.5484 104.831 22.5484C102.108 22.5484 100.667 23.8481 100.667 25.9998C100.667 28.0173 102.205 29.1172 104.084 29.1172C104.79 29.1172 105.513 28.9916 106.085 28.7609C106.439 28.6129 106.586 28.5251 107.037 28.2393C107.312 28.6249 107.856 29.0191 108.08 29.0931L109.831 27.914ZM131 28.8883C131 28.8883 129.509 25.7846 129.145 25.0789C128.734 24.2836 128.353 23.7345 127.515 23.5365V23.4918C128.077 23.3867 128.524 23.0545 129.014 22.0389C129.478 21.0491 129.615 20.8356 129.888 20.5998C130.156 20.3657 130.522 20.4501 130.522 20.4501L130.66 18.6202C130.271 18.5686 129.839 18.5669 129.393 18.591C128.653 18.634 128.271 18.8423 127.906 19.2003C127.62 19.474 127.427 19.8837 127.187 20.3537C126.933 20.8666 126.732 21.2798 126.468 21.8013C126.206 22.3367 126.082 22.5777 125.376 22.5777H124.916V14.4717H122.193V28.8883H124.916V24.7432L125.288 24.7363C126.068 24.7363 126.206 24.9274 126.618 25.7313C127.101 26.6901 128.026 28.8883 128.026 28.8883H131ZM54.3104 28.8883H57.452L52.6999 14.7127C52.1995 14.5491 51.581 14.4476 50.9203 14.4476C50.1996 14.4476 49.9424 14.5405 49.3785 14.7127L44.3497 28.8883H47.3645C47.3645 28.8883 47.7716 27.6455 48.2508 26.1048H53.4593C53.9245 27.6437 54.3104 28.8883 54.3104 28.8883ZM49.0155 23.7276C49.0155 23.7276 49.886 20.8821 50.0216 20.4397C50.367 19.2933 50.8921 17.4721 50.8921 17.4721H50.9784C50.9784 17.4721 51.4647 19.3587 51.7819 20.4191C51.9017 20.8408 52.7334 23.7276 52.7334 23.7276H49.0155ZM84.1024 22.106C83.1421 22.106 82.3615 22.872 82.3615 23.8102C82.3615 24.7552 83.1421 25.5161 84.1024 25.5161C85.0645 25.5161 85.8415 24.7552 85.8415 23.8102C85.8415 22.872 85.0645 22.106 84.1024 22.106ZM61.1822 14.4717H58.4529V28.8866H61.1822V14.4717ZM115.408 20.7875C116.916 20.8184 117.103 21.1231 117.103 22.3591V28.8883H119.808V22.1301C119.808 20.6566 119.632 20.1247 119.23 19.5876C118.675 18.8268 117.584 18.4963 115.739 18.4963C113.914 18.4963 112.751 18.6856 111.255 19.1211V28.8883H113.988V20.9114C114.705 20.8098 114.832 20.7875 115.408 20.7875ZM67.9325 14.2152C66.2268 14.2152 65.2983 14.5457 64.752 15.3048C64.3503 15.8436 64.1723 16.3876 64.1723 17.8645V19.1211H62.8174V21.2763H64.1723V28.8883H66.8788L66.8717 21.2763H69.5694V19.1211H66.8717L66.8788 17.9661C66.8788 16.6441 67.0849 16.3876 68.8928 16.3876C69.0883 16.3876 69.3086 16.3979 69.5429 16.4151L69.9693 14.3443C69.3015 14.2582 68.6179 14.2152 67.9325 14.2152ZM89.6474 14.3495C90.576 14.2961 92.6517 14.2204 93.9538 14.2204C94.1917 14.2204 94.4383 14.2221 94.685 14.2341C97.2452 14.2341 98.713 16.0554 98.713 18.1933C98.713 19.6479 98.0311 20.6136 96.4329 21.1885C98.313 21.5948 99.298 23.0287 99.298 24.7828C99.298 26.0704 98.9262 27.0929 98.2443 27.7901C97.3597 28.6404 96.0206 29.1172 94.2375 29.1172C92.6517 29.1172 90.6606 29.069 89.6474 29.0105V14.3495ZM93.9538 16.7112C93.5027 16.7112 92.9442 16.7198 92.3909 16.7387V20.2005H93.9555C94.5758 20.2005 95.0744 20.0318 95.4145 19.7064C95.7387 19.4 95.9079 18.9662 95.9079 18.4515C95.9079 17.3447 95.2947 16.7181 94.1547 16.7112H93.9538ZM94.0102 26.6316H94.1282C95.5502 26.6316 96.4206 25.8931 96.4312 24.4058C96.4171 23.8722 96.2074 23.3799 95.8321 23.0235C95.4215 22.6207 94.8401 22.4107 94.1582 22.4107H92.3909V26.6161C92.8895 26.6264 93.4393 26.6281 94.0102 26.6316Z" fill="#6E8290"/>
</g>
<defs>
<clipPath id="clip0">
<rect width="131" height="45" fill="white"/>
</clipPath>
</defs>
</svg>
