<svg width="165" height="47" viewBox="0 0 165 47" fill="none" xmlns="http://www.w3.org/2000/svg">
<g clip-path="url(#clip0)">
<path d="M0.0656738 14.3691H30.216V0.000247955H0.0656738V14.3691Z" fill="#6E8290"/>
<path d="M0.0656738 28.1748H30.2182V14.0875H0.0656738V28.1748Z" fill="#6E8290"/>
<path d="M5.32422 14.9448H24.9415V13.23H5.32422V14.9448Z" fill="white"/>
<path d="M49.4539 7.03538C52.7348 7.03538 54.7947 9.03929 54.7947 11.8083C54.7947 14.6918 52.7348 16.3522 49.4539 16.3522H42.9277V21.0657H40.1472V7.03538H49.4539ZM49.6131 14.033C51.0532 14.033 51.9552 13.1005 51.9552 11.8459C51.9552 10.4624 51.0533 9.35715 49.4539 9.35715H42.9277V14.033H49.6131Z" fill="#6E8290"/>
<path d="M65.1031 21.4578C60.3211 21.4578 56.358 18.4858 56.358 14.033C56.358 9.63792 60.3211 6.60694 65.1031 6.60694C69.9075 6.60694 73.8072 9.63792 73.8072 14.033C73.8072 18.4858 69.9075 21.4578 65.1031 21.4578ZM65.1031 9.00247C61.6186 9.00247 59.2368 11.2083 59.2368 14.033C59.2368 16.9333 61.5197 19.0817 65.1031 19.0817C68.6659 19.0817 70.9245 16.9152 70.9245 14.033C70.9245 11.2083 68.6659 9.00247 65.1031 9.00247Z" fill="#6E8290"/>
<path d="M85.3359 21.4409C80.3114 21.4409 76.5283 18.4664 76.5283 14.0157C76.5283 9.63791 80.3688 6.60693 85.3359 6.60693C88.2994 6.60693 90.4179 7.39459 92.3222 8.70043L90.8362 10.7613C89.4572 9.76685 87.7167 9.03923 85.4168 9.03923C81.7513 9.03923 79.4706 11.2083 79.4706 14.0157C79.4706 16.9152 81.7733 19.0066 85.455 19.0066C87.7557 19.0066 89.5763 18.3147 90.9581 17.3267L92.4384 19.3832C90.5391 20.6916 88.2994 21.4409 85.3359 21.4409Z" fill="#6E8290"/>
<path d="M116.478 17.6608L114.758 21.0671H111.754L119.058 7.03552H121.978L129.305 21.0671H126.302L124.583 17.6608H116.478ZM117.638 15.38H123.424L120.54 9.69252L117.638 15.38Z" fill="#6E8290"/>
<path d="M144.033 21.0657V15.0632H134.207V21.0657H131.424V7.03538H134.207V12.7622H144.033V7.03538H146.816V21.0657H144.033Z" fill="#6E8290"/>
<path d="M150.935 21.0657V7.03538H153.72V13.5827L161.263 7.03538H164.68L156.92 13.791L165.002 21.0657H161.263L153.72 14.2569V21.0657H150.935Z" fill="#6E8290"/>
<path d="M104.88 12.1793H98.3618V9.22131H109.1V7.02378H95.5791V21.0425H104.88C108.157 21.0425 110.416 19.3768 110.416 16.6112C110.416 13.7334 108.157 12.1793 104.88 12.1793ZM105.04 18.7233H98.3618V14.5003H105.04C106.784 14.5003 107.775 15.3597 107.775 16.6112C107.775 17.9933 106.987 18.7233 105.04 18.7233Z" fill="#6E8290"/>
<path d="M4.27324 43.3555C3.64735 43.1044 2.97161 42.9387 2.37147 42.9387C1.49605 42.9387 1.05793 43.1166 1.05793 43.4344C1.05793 44.3378 4.96616 43.6117 4.96616 45.5432C4.96616 46.3432 4.16302 46.9585 2.55425 46.9585C1.60018 46.9585 0.855755 46.7742 0 46.3432L0.353103 45.6229C1.105 46.0124 1.80373 46.1807 2.56311 46.1807C3.51524 46.1807 4.02482 45.927 4.02482 45.5432C4.02482 44.5513 0.115762 45.2903 0.115762 43.4815C0.115762 42.7019 0.913913 42.1622 2.35181 42.1622C3.21255 42.1622 3.93869 42.3434 4.63327 42.6657L4.27324 43.3555Z" fill="#6E8290"/>
<path d="M8.58668 46.9797C7.02612 46.9797 5.72864 46.0112 5.72864 44.5573C5.72864 43.1205 7.02612 42.1312 8.58668 42.1312C10.1556 42.1312 11.4281 43.1205 11.4281 44.5573C11.4281 46.0112 10.1556 46.9797 8.58668 46.9797ZM8.58668 42.9142C7.44849 42.9142 6.67163 43.6337 6.67163 44.5573C6.67163 45.5064 7.418 46.2066 8.58668 46.2066C9.74848 46.2066 10.4901 45.5005 10.4901 44.5573C10.4901 43.6337 9.74848 42.9142 8.58668 42.9142Z" fill="#6E8290"/>
<path d="M15.1488 46.9768C13.5084 46.9768 12.2755 46.0049 12.2755 44.5515C12.2755 43.1206 13.5292 42.1314 15.1488 42.1314C16.1148 42.1314 16.8091 42.3889 17.4294 42.8173L16.9475 43.4895C16.4975 43.1654 15.9275 42.9273 15.1751 42.9273C13.9795 42.9273 13.2337 43.6339 13.2337 44.5515C13.2337 45.5007 13.9851 46.1809 15.1876 46.1809C15.9381 46.1809 16.5335 45.9557 16.9835 45.629L17.4701 46.3043C16.8464 46.7314 16.1148 46.9768 15.1488 46.9768Z" fill="#6E8290"/>
<path d="M18.4353 46.8555H19.3445V42.2735H18.4353V46.8555Z" fill="#6E8290"/>
<path d="M20.6378 46.8552V42.2738H25.1027V43.0322H21.5462V44.1413H24.3115V44.901H21.5462V46.0986H25.2581V46.8552H20.6378Z" fill="#6E8290"/>
<path d="M28.5724 43.0236V46.8552H27.6635V43.0236H25.6644V42.2738H30.5664V43.0236H28.5724Z" fill="#6E8290"/>
<path d="M31.3043 46.8552V42.2738H35.7687V43.0322H32.2141V44.1413H34.9775V44.901H32.2141V46.0986H35.9251V46.8552H31.3043Z" fill="#6E8290"/>
<path d="M41.6117 46.1762C42.1074 46.1762 42.6245 46.0714 43.01 45.9039V44.5709H43.8923V46.3471C43.2703 46.7387 42.4154 46.9768 41.5702 46.9768C39.9312 46.9768 38.696 46.0049 38.696 44.5515C38.696 43.1206 39.9506 42.1314 41.5702 42.1314C42.5206 42.1314 43.2332 42.383 43.8519 42.8108L43.3689 43.4825C42.9194 43.1595 42.3498 42.9389 41.5978 42.9389C40.402 42.9143 39.657 43.6339 39.657 44.5515C39.657 45.5007 40.4089 46.1762 41.6117 46.1762Z" fill="#6E8290"/>
<path d="M45.1211 46.8552V42.2738H49.5868V43.0322H46.0294V44.1413H48.7961V44.901H46.0294V46.0986H49.7419V46.8552H45.1211Z" fill="#6E8290"/>
<path d="M51.6057 46.8552H50.7153V42.2738H51.644L54.8377 45.7259L54.8589 45.7189C54.8058 44.8479 54.8017 44.146 54.8017 43.4709V42.2738H55.6865V46.8552H54.7684L51.5855 43.4036L51.5711 43.4088C51.6057 44.0877 51.6057 45.2711 51.6057 45.6594V46.8552Z" fill="#6E8290"/>
<path d="M56.9895 46.8552V42.2738H61.453V43.0322H57.8965V44.1413H60.6609V44.901H57.8965V46.0986H61.6095V46.8552H56.9895Z" fill="#6E8290"/>
<path d="M64.9447 45.1668H63.4806V46.8552H62.5691V42.2738H65.723C66.7684 42.2738 67.4137 42.8704 67.4137 43.7336C67.4137 44.5516 66.7786 45.0408 66.009 45.1435L67.4685 46.8552H66.3281L64.9447 45.1668ZM65.6261 44.4066C66.191 44.4066 66.5136 44.131 66.5136 43.7336C66.5136 43.3001 66.2312 43.0322 65.723 43.0322H63.4806V44.4066H65.6261Z" fill="#6E8290"/>
<path d="M69.3168 45.7407L68.7546 46.8555H67.7732L70.1582 42.2735H71.1146L73.5067 46.8555H72.5269L71.9625 45.7407H69.3168ZM69.6938 44.9978H71.5825L70.6443 43.1399L69.6938 44.9978Z" fill="#6E8290"/>
<path d="M74.1595 46.8552V42.2738H75.0677V46.0986H78.3404V46.8552H74.1595Z" fill="#6E8290"/>
<path d="M79.0565 46.8552V42.2738H83.5181V43.0322H79.9647V44.1413H82.7262V44.901H79.9647V46.0986H83.6741V46.8552H79.0565Z" fill="#6E8290"/>
<path d="M89.5671 46.184C90.0648 46.184 90.5816 46.0823 90.9716 45.911V44.5792H91.8528V46.3574C91.2339 46.7509 90.3732 46.989 89.5288 46.989C87.8847 46.989 86.6489 46.0145 86.6489 44.5572C86.6489 43.1259 87.9052 42.1358 89.5288 42.1358C90.4767 42.1358 91.192 42.3869 91.8181 42.8152L91.3303 43.4869C90.8794 43.1621 90.3087 42.9421 89.5543 42.9421C88.3576 42.918 87.6082 43.6383 87.6082 44.5572C87.6082 45.5077 88.3625 46.184 89.5671 46.184Z" fill="#6E8290"/>
<path d="M95.4615 45.1764H93.9953V46.8679H93.085V42.2748H96.2449C97.2906 42.2748 97.9422 42.8753 97.9422 43.7399C97.9422 44.5578 97.3069 45.0462 96.5292 45.151L97.9953 46.8679H96.8532L95.4615 45.1764ZM96.1463 44.4136C96.7142 44.4136 97.0368 44.1372 97.0368 43.7399C97.0368 43.3068 96.7518 43.0345 96.2449 43.0345H93.9953V44.4136H96.1463Z" fill="#6E8290"/>
<path d="M101.576 46.9973C100.012 46.9973 98.7142 46.0215 98.7142 44.5642C98.7142 43.1264 100.012 42.1363 101.576 42.1363C103.147 42.1363 104.426 43.1264 104.426 44.5642C104.426 46.0215 103.147 46.9973 101.576 46.9973ZM101.576 42.9185C100.438 42.9185 99.6565 43.6376 99.6565 44.5642C99.6565 45.5124 100.403 46.2148 101.576 46.2148C102.742 46.2148 103.48 45.5082 103.48 44.5642C103.48 43.6376 102.742 42.9185 101.576 42.9185Z" fill="#6E8290"/>
<path d="M110.424 44.9979C110.424 46.1691 109.494 47 107.947 47C106.402 47 105.474 46.151 105.474 44.9979V42.2744H106.385V44.9073C106.385 45.6675 106.88 46.2118 107.947 46.2118C109.011 46.2118 109.518 45.6735 109.518 44.9073V42.2744H110.424V44.9979Z" fill="#6E8290"/>
<path d="M114.741 42.2748C115.813 42.2748 116.493 42.9284 116.493 43.8369C116.493 44.7778 115.813 45.3258 114.741 45.3258H112.605V46.8679H111.696V42.2748H114.741ZM114.795 44.5643C115.26 44.5643 115.562 44.2588 115.562 43.8465C115.562 43.3969 115.26 43.0332 114.741 43.0332H112.605V44.5643H114.795Z" fill="#6E8290"/>
</g>
<defs>
<clipPath id="clip0">
<rect width="165" height="47" fill="white"/>
</clipPath>
</defs>
</svg>
