<svg width="166" height="34" viewBox="0 0 166 34" fill="none" xmlns="http://www.w3.org/2000/svg">
<path fill-rule="evenodd" clip-rule="evenodd" d="M20.0764 0.524658V9.21827H16.7795C12.5969 9.21827 9.20166 12.6657 9.20166 16.9126C9.20166 21.1595 12.5969 24.6069 16.7795 24.6069H20.0764V33.3006C27.6051 31.7517 33.2639 25.0067 33.2639 16.9126C33.2639 8.81856 27.6051 2.07352 20.0764 0.524658Z" fill="#6E8290"/>
<path fill-rule="evenodd" clip-rule="evenodd" d="M16.7795 27.3049C11.1453 27.3049 6.56907 22.6583 6.56907 16.9375C6.56907 11.2167 11.1453 6.5701 16.7795 6.5701H17.4438V0.199786C17.2224 0.199786 17.001 0.174805 16.7795 0.174805C7.67622 0.174805 0.295166 7.66929 0.295166 16.9125C0.295166 26.1557 7.67622 33.6502 16.7795 33.6502C17.001 33.6502 17.2224 33.6502 17.4438 33.6252V27.2799H16.7795V27.3049Z" fill="#6E8290"/>
<path fill-rule="evenodd" clip-rule="evenodd" d="M51.1507 9.39326C50.4618 9.99282 49.5515 10.3426 48.5674 10.3426C46.353 10.3426 44.5324 8.49393 44.5324 6.24558C44.5324 3.99723 46.353 2.14859 48.5674 2.14859C49.5761 2.14859 50.511 2.52332 51.2245 3.17284L52.6515 1.7239C51.569 0.724638 50.142 0.100098 48.5674 0.100098C45.2213 0.100098 42.5149 2.84808 42.5149 6.24558C42.5149 9.64308 45.2213 12.3911 48.5674 12.3911C50.0928 12.3911 51.4952 11.8165 52.5777 10.8422L51.1507 9.39326Z" fill="#6E8290"/>
<path fill-rule="evenodd" clip-rule="evenodd" d="M115.538 0.574707L111.085 6.0207L106.582 0.574707L106.558 0.62467V0.574707H104.762V11.8914H106.558V3.59748L111.085 9.04348L115.538 3.69741V11.8914H117.334V0.574707H115.538Z" fill="#6E8290"/>
<path fill-rule="evenodd" clip-rule="evenodd" d="M66.0605 6.24558C66.0605 9.64308 63.3541 12.3911 60.008 12.3911C56.662 12.3911 53.9556 9.64308 53.9556 6.24558C53.9556 2.84808 56.662 0.100098 60.008 0.100098C63.3541 0.100098 66.0605 2.84808 66.0605 6.24558ZM64.0676 6.24558C64.0676 3.97225 62.247 2.14859 60.0326 2.14859C57.7937 2.14859 55.9977 3.99723 55.9977 6.24558C55.9977 8.49393 57.8183 10.3426 60.0326 10.3426C62.247 10.3426 64.0676 8.49393 64.0676 6.24558Z" fill="#6E8290"/>
<path fill-rule="evenodd" clip-rule="evenodd" d="M102.916 6.24558C102.916 9.64308 100.21 12.3911 96.864 12.3911C93.5179 12.3911 90.8115 9.64308 90.8115 6.24558C90.8115 2.84808 93.5179 0.100098 96.864 0.100098C100.21 0.100098 102.916 2.84808 102.916 6.24558ZM100.924 6.24558C100.924 3.97225 99.1029 2.14859 96.8886 2.14859C94.6497 2.14859 92.8536 3.99723 92.8536 6.24558C92.8536 8.49393 94.6743 10.3426 96.8886 10.3426C99.1029 10.3426 100.924 8.49393 100.924 6.24558Z" fill="#6E8290"/>
<path fill-rule="evenodd" clip-rule="evenodd" d="M90.7871 0.549805H88.376L83.7751 5.3213H81.9052V0.574786H80.1338V11.8915H81.9052V7.14495H83.7505L88.3268 11.8665H90.7379L85.3005 6.24562L90.7871 0.549805Z" fill="#6E8290"/>
<path fill-rule="evenodd" clip-rule="evenodd" d="M165.852 0.549805H163.441L158.84 5.3213H156.97V0.574786H155.174V11.8915H156.97V7.14495H158.816L163.392 11.8665H165.803L160.366 6.24562L165.852 0.549805Z" fill="#6E8290"/>
<path fill-rule="evenodd" clip-rule="evenodd" d="M139.65 11.8914H141.618L136.697 0.574707H134.68L129.759 11.8914H131.727L132.785 9.44319H138.542L139.65 11.8914ZM133.622 7.61953L135.713 2.87302L137.804 7.61953H133.622Z" fill="#6E8290"/>
<path fill-rule="evenodd" clip-rule="evenodd" d="M77.8456 8.61871C77.8456 7.69439 77.452 6.84502 76.8369 6.24546C77.452 5.6459 77.8456 4.79652 77.8456 3.8722C77.8456 2.07353 76.4186 0.599609 74.6472 0.599609H68.1519V11.8663V11.9163H74.6718C76.4186 11.8663 77.8456 10.4174 77.8456 8.61871ZM69.9479 2.39829H74.6472C75.4345 2.39829 76.0742 3.04781 76.0742 3.84722C76.0742 4.64663 75.4345 5.29616 74.6472 5.29616H69.9479V2.39829ZM74.6226 10.0676H69.9233V7.1448H74.6472C75.4345 7.16978 76.0496 7.79432 76.0496 8.59373C76.0742 9.41813 75.4099 10.0676 74.6226 10.0676Z" fill="#6E8290"/>
<path fill-rule="evenodd" clip-rule="evenodd" d="M151.189 0.599609V5.32114H144.669V0.599609H142.873V11.8413H144.669V7.1448H151.189V11.8413H152.985V0.599609H151.189Z" fill="#6E8290"/>
<path fill-rule="evenodd" clip-rule="evenodd" d="M129.144 8.61871C129.144 6.82004 127.692 5.34612 125.921 5.34612H121.222V2.39829H128.061V0.599609H119.426V11.8663V11.9163H125.946C127.717 11.8663 129.144 10.4174 129.144 8.61871ZM125.921 10.0676H121.222V7.1448H125.946C126.733 7.16978 127.348 7.79432 127.348 8.59373C127.348 9.41813 126.708 10.0676 125.921 10.0676Z" fill="#6E8290"/>
<path d="M45.0243 33.1009C44.237 32.6762 43.6465 32.0766 43.2036 31.3022C42.7607 30.5277 42.5393 29.6784 42.5393 28.7291C42.5393 27.7798 42.7607 26.9054 43.2036 26.156C43.6465 25.3815 44.2616 24.807 45.0489 24.3573C45.8362 23.9326 46.6973 23.7078 47.6814 23.7078C48.4442 23.7078 49.133 23.8327 49.7481 24.0825C50.3632 24.3323 50.9045 24.732 51.3474 25.2316L50.437 26.106C49.6989 25.3316 48.8132 24.9319 47.706 24.9319C46.9925 24.9319 46.3282 25.1067 45.7624 25.4315C45.1719 25.7563 44.729 26.2059 44.4092 26.7805C44.0893 27.3551 43.9171 28.0046 43.9171 28.7041C43.9171 29.4036 44.0893 30.0531 44.4092 30.6277C44.729 31.2022 45.1965 31.6519 45.7624 31.9767C46.3529 32.3014 46.9925 32.4763 47.706 32.4763C48.7886 32.4763 49.6989 32.0766 50.437 31.3022L51.3474 32.1765C50.9045 32.6762 50.3632 33.0759 49.7481 33.3257C49.1084 33.5755 48.4195 33.7254 47.6568 33.7254C46.6727 33.7504 45.8116 33.5505 45.0243 33.1009Z" fill="#6E8290"/>
<path d="M61.1642 25.032H57.8427V33.6256H56.4895V25.032H53.1926V23.8079H61.1642V25.032Z" fill="#6E8290"/>
<path d="M70.9565 24.7321C71.67 25.3317 72.0391 26.181 72.0391 27.2552C72.0391 28.3295 71.67 29.1538 70.9565 29.7784C70.243 30.3779 69.2589 30.7027 68.0041 30.7027H65.6175V33.6755H64.2397V23.8328H68.0041C69.2589 23.8328 70.243 24.1325 70.9565 24.7321ZM69.9724 28.879C70.4398 28.5043 70.6613 27.9547 70.6613 27.2552C70.6613 26.5558 70.4398 26.0062 69.9724 25.6314C69.5049 25.2567 68.8406 25.0569 67.9795 25.0569H65.6421V29.4536H67.9795C68.8406 29.4536 69.5049 29.2538 69.9724 28.879Z" fill="#6E8290"/>
<path d="M81.1422 31.1774H76.0001L74.9421 33.6256H73.5151L77.8946 23.8079H79.2724L83.6764 33.6256H82.2248L81.1422 31.1774ZM80.6747 30.0782L78.5835 25.2568L76.4922 30.0782H80.6747Z" fill="#6E8290"/>
<path d="M86.8257 23.8328L89.3599 27.4301L91.8941 23.8328H93.5179L90.2456 28.5543L93.7885 33.6505H92.1647L89.3353 29.7284L86.5797 33.6505H84.9805L88.4988 28.6043L85.2019 23.8328H86.8257Z" fill="#6E8290"/>
<path d="M98.2417 33.1009C97.4544 32.6762 96.8393 32.0766 96.3965 31.3022C95.9536 30.5277 95.7322 29.6784 95.7322 28.7291C95.7322 27.7798 95.9536 26.9304 96.3965 26.156C96.8393 25.3815 97.4544 24.782 98.2417 24.3573C99.029 23.9326 99.9148 23.7078 100.874 23.7078C101.834 23.7078 102.72 23.9326 103.507 24.3573C104.294 24.782 104.909 25.3815 105.352 26.156C105.795 26.9304 106.016 27.7798 106.016 28.7291C106.016 29.6784 105.795 30.5527 105.352 31.3022C104.909 32.0766 104.294 32.6512 103.507 33.1009C102.72 33.5255 101.858 33.7504 100.874 33.7504C99.9148 33.7504 99.029 33.5505 98.2417 33.1009ZM102.793 32.0266C103.359 31.7019 103.802 31.2522 104.122 30.6776C104.442 30.1031 104.614 29.4535 104.614 28.7541C104.614 28.0546 104.442 27.405 104.122 26.8305C103.802 26.2559 103.359 25.8062 102.793 25.4815C102.227 25.1567 101.588 24.9818 100.874 24.9818C100.161 24.9818 99.5211 25.1567 98.9552 25.4815C98.3894 25.8062 97.9219 26.2559 97.602 26.8305C97.2822 27.405 97.11 28.0546 97.11 28.7541C97.11 29.4535 97.2822 30.1031 97.602 30.6776C97.9219 31.2522 98.3894 31.7019 98.9552 32.0266C99.5211 32.3514 100.185 32.5263 100.874 32.5263C101.588 32.5013 102.227 32.3514 102.793 32.0266Z" fill="#6E8290"/>
<path d="M117.137 29.4037C117.482 29.8034 117.654 30.328 117.654 30.9775C117.654 31.8269 117.359 32.4764 116.743 32.9511C116.128 33.4257 115.243 33.6505 114.062 33.6505H109.633V23.8328H113.791C114.849 23.8328 115.686 24.0576 116.276 24.4823C116.867 24.907 117.162 25.5315 117.162 26.3559C117.162 26.8805 117.039 27.3552 116.768 27.7049C116.497 28.0796 116.128 28.3544 115.661 28.5543C116.301 28.7042 116.793 29.004 117.137 29.4037ZM110.986 28.1546H113.693C114.357 28.1546 114.874 28.0297 115.243 27.7549C115.587 27.4801 115.784 27.0804 115.784 26.5558C115.784 26.0311 115.612 25.6314 115.243 25.3566C114.874 25.0818 114.382 24.932 113.717 24.932H111.011V28.1546H110.986ZM116.251 30.8526C116.251 30.303 116.055 29.8783 115.686 29.6035C115.316 29.3287 114.751 29.2038 114.012 29.2038H110.986V32.5264H114.012C115.513 32.5264 116.251 31.9768 116.251 30.8526Z" fill="#6E8290"/>
<path d="M127.618 31.1774H122.476L121.418 33.6256H119.991L124.371 23.8079H125.748L130.152 33.6256H128.676L127.618 31.1774ZM127.151 30.0782L125.06 25.2568L122.968 30.0782H127.151Z" fill="#6E8290"/>
<path d="M141.519 23.8328V33.6505H140.142V29.2788H134.581V33.6505H133.203V23.8328H134.581V28.0547H140.142V23.8328H141.519Z" fill="#6E8290"/>
<path d="M145.899 23.8328H147.276V31.4022L153.009 23.8328H154.288V33.6505H152.935V26.0811L147.203 33.6505H145.899V23.8328Z" fill="#6E8290"/>
<path d="M165.68 32.4264V33.6505H158.668V23.8328H165.483V25.0569H160.046V28.0796H164.893V29.2788H160.046V32.4514H165.68V32.4264Z" fill="#6E8290"/>
<path d="M165.852 18.5366H42.5149V20.0605H165.852V18.5366Z" fill="#6E8290"/>
</svg>
