<svg width="98" height="35" viewBox="0 0 98 35" fill="none" xmlns="http://www.w3.org/2000/svg">
<path fill-rule="evenodd" clip-rule="evenodd" d="M6.65831 0L4.99269 4.54269H28.0744L29.74 0H6.65831ZM4.15936 6.81301L2.49375 11.3547H25.5755L27.2411 6.81301H4.15936ZM1.66562 13.626L0 18.1677H23.0817L24.7463 13.626H1.66562Z" fill="#6E8290"/>
<mask id="mask0" mask-type="alpha" maskUnits="userSpaceOnUse" x="34" y="6" width="64" height="29">
<path d="M34.6299 34.7272H97.8134V6.90039H34.6299V34.7272Z" fill="white"/>
</mask>
<g mask="url(#mask0)">
<path fill-rule="evenodd" clip-rule="evenodd" d="M49.0702 19.8988V19.9947C50.125 20.3802 51.1327 21.0543 51.6606 21.4872C53.2917 22.8354 54.0117 24.6164 54.0117 26.9273C54.0117 30.7317 51.9965 33.4755 48.6861 34.3424C47.6784 34.631 46.6236 34.7279 44.6556 34.7279H34.6299V6.90039H43.5053C45.3284 6.90039 46.5753 6.99624 47.6784 7.28484C50.8934 8.15168 53.0041 10.3667 53.0041 13.8804C53.0041 15.7584 52.3323 17.3478 51.2292 18.4063C50.7496 18.8877 50.0778 19.4659 49.0702 19.8988ZM40.1948 22.8354V30.1535H44.0332C45.1836 30.1535 46.2395 30.0576 47.0078 29.3351C47.775 28.6126 48.1109 27.6983 48.1109 26.4944C48.1109 25.5802 47.8705 24.7133 47.3909 24.0877C46.5753 23.0766 45.5677 22.8354 43.8411 22.8354H40.1948ZM40.1466 18.0208H43.2649C44.2242 18.0208 44.7039 18.0208 45.1836 17.8765C46.4798 17.491 47.2953 16.3367 47.2953 14.7473C47.2953 12.8703 46.4315 12.0509 45.1836 11.6665C44.6556 11.5222 44.1287 11.4737 43.0728 11.4737H40.1466V18.0208ZM62.3591 34.7279V11.5696H54.3476V6.90039H76.6084L75.0256 11.5696H67.9241V34.7279H62.3591ZM78.335 34.7279V6.90039H96.3744L94.7916 11.5696H83.8527V17.7322H88.3146C91.9126 17.7322 93.784 18.5991 95.0792 19.7061C96.0868 20.5729 97.8134 22.4983 97.8134 26.3027C97.8134 30.0576 96.0385 32.1273 94.5512 33.1869C92.8247 34.3898 91.0015 34.7279 87.3069 34.7279H78.335ZM83.8527 30.0576H88.027C89.6098 30.0576 90.5691 29.6722 91.2408 28.8053C91.5767 28.3724 92.0564 27.6014 92.0564 26.1574C92.0564 24.7133 91.5767 23.7022 90.6174 22.9797C90.0422 22.5468 89.2739 22.3066 87.9787 22.3066H83.8527V30.0576Z" fill="#6E8290"/>
</g>
</svg>
