<svg width="68" height="60" viewBox="0 0 68 60" fill="none" xmlns="http://www.w3.org/2000/svg">
<path fill-rule="evenodd" clip-rule="evenodd" d="M24.1003 28.3863H31.6936V4.03198H24.1003V28.3863ZM19.9518 31.8579H35.8395V0.564453H19.9518V31.8579Z" fill="#6E8290"/>
<path fill-rule="evenodd" clip-rule="evenodd" d="M0 38.7233H67.532V35.2659H0V38.7233Z" fill="#6E8290"/>
<path fill-rule="evenodd" clip-rule="evenodd" d="M4.13329 52.2336H23.6534V45.6333H4.13329V52.2336ZM0 59.6042H4.13329V55.6869H27.7877V42.1768H0V59.6042Z" fill="#6E8290"/>
<path fill-rule="evenodd" clip-rule="evenodd" d="M51.6447 4.03198V31.8574H55.7906V10.9734L63.3824 4.03473V31.8574H67.5325V0.564453H61.7051L55.7906 5.95441V0.564453H49.9659L39.9008 9.66034V31.8574H44.0519V10.9748L51.6447 4.03198Z" fill="#6E8290"/>
<path fill-rule="evenodd" clip-rule="evenodd" d="M35.9659 52.2336H47.4831V45.6333H35.9659V52.2336ZM51.7954 52.2336H63.4002V45.6333H51.7954V52.2336ZM31.8306 55.6869H47.4836V59.6042H51.7954V55.6869H67.533V42.1768H31.8306V55.6869Z" fill="#6E8290"/>
<path fill-rule="evenodd" clip-rule="evenodd" d="M4.15046 10.9748L11.7407 4.03473V28.3867H4.15046V10.9748ZM11.7407 31.8574H15.8897V0.564453H10.0645L0.000366211 9.66034V31.8574H11.7407Z" fill="#6E8290"/>
</svg>
