<svg width="30" height="30" viewBox="0 0 30 30" fill="none" xmlns="http://www.w3.org/2000/svg">
<g clip-path="url(#clip0)">
<path d="M26.5996 13.5976C27.0262 13.0461 27.3649 12.6036 27.615 12.2697C29.4164 9.87473 30.1972 8.34479 29.9579 7.67777L29.864 7.52156C29.8016 7.42772 29.6399 7.34156 29.3798 7.26356C29.1194 7.18562 28.7862 7.17317 28.3803 7.22462L23.8819 7.25635C23.7778 7.24598 23.6736 7.2484 23.5694 7.26356C23.4653 7.2794 23.3977 7.29529 23.3663 7.31045C23.3349 7.32634 23.309 7.33908 23.2883 7.34945L23.2259 7.39633C23.1739 7.42739 23.1167 7.48222 23.0542 7.56055C22.9917 7.63883 22.9393 7.72956 22.8979 7.83405C22.4086 9.09392 21.8515 10.2656 21.2267 11.3485C20.8413 11.9942 20.4871 12.5543 20.1647 13.0275C19.8419 13.5017 19.5711 13.8504 19.3524 14.0739C19.1338 14.2977 18.9358 14.4777 18.7589 14.6126C18.5816 14.7485 18.4464 14.8054 18.353 14.7847C18.2591 14.7641 18.1705 14.7434 18.0874 14.722C17.9415 14.6285 17.8242 14.5012 17.736 14.3395C17.6474 14.1785 17.5877 13.9752 17.5562 13.7304C17.5252 13.4859 17.5066 13.2748 17.5018 13.0975C17.4962 12.9206 17.499 12.6709 17.5097 12.3477C17.5201 12.0248 17.5252 11.8066 17.5252 11.6917C17.5252 11.2965 17.5331 10.8667 17.5488 10.4032C17.5643 9.94004 17.5774 9.57272 17.5877 9.30193C17.5981 9.03154 17.6032 8.74492 17.6032 8.4428C17.6032 8.14135 17.5849 7.90404 17.5482 7.73199C17.5117 7.56055 17.4569 7.39397 17.3845 7.23223C17.3114 7.07116 17.2048 6.94594 17.064 6.85769C16.9234 6.76904 16.7491 6.69905 16.5409 6.64658C15.9887 6.52136 15.2858 6.45447 14.4322 6.44348C12.4953 6.42347 11.2509 6.5483 10.6991 6.81869C10.4804 6.93354 10.2824 7.08942 10.1055 7.2874C9.91791 7.51677 9.89204 7.64193 10.0276 7.66194C10.6525 7.75577 11.0947 7.97995 11.3551 8.3338L11.4489 8.52107C11.5217 8.65694 11.5945 8.89634 11.6676 9.23983C11.7404 9.58337 11.7873 9.96343 11.8083 10.3801C11.8604 11.1402 11.8604 11.7907 11.8083 12.3325C11.7562 12.8743 11.7069 13.2958 11.66 13.5973C11.6131 13.8994 11.5427 14.1439 11.4493 14.3312C11.3554 14.5191 11.293 14.6336 11.2616 14.6754C11.2303 14.7167 11.2044 14.7429 11.1837 14.7533C11.0482 14.8051 10.9078 14.8313 10.7619 14.8313C10.616 14.8313 10.4391 14.7581 10.2308 14.6122C10.0224 14.4671 9.80621 14.2663 9.58271 14.0111C9.35853 13.7563 9.10639 13.3993 8.82496 12.9409C8.54386 12.4832 8.25205 11.9414 7.95027 11.3168L7.70056 10.8636C7.54434 10.5725 7.33081 10.1479 7.06008 9.59092C6.78935 9.03391 6.54961 8.49521 6.34166 7.97409C6.2582 7.75577 6.13331 7.58918 5.96678 7.47433L5.88885 7.42744C5.83677 7.38602 5.75331 7.34156 5.6388 7.29495C5.52394 7.24806 5.40464 7.21425 5.27942 7.19323L0.99963 7.22428C0.562313 7.22428 0.265715 7.32364 0.109498 7.52156L0.0470567 7.61505C0.0154977 7.66746 0 7.75092 0 7.8651C0 7.97995 0.0313899 8.12033 0.0938315 8.28658C0.718755 9.75514 1.39823 11.1713 2.13215 12.535C2.86646 13.8994 3.50417 14.9982 4.04563 15.8311C4.58709 16.6647 5.13893 17.4504 5.70146 18.1898C6.264 18.9293 6.63612 19.4028 6.8182 19.6108C7.00028 19.8195 7.14343 19.9757 7.24763 20.0795L7.63806 20.4547C7.88777 20.7045 8.25509 21.0038 8.73935 21.3528C9.22356 21.7018 9.75955 22.0454 10.3483 22.3834C10.9364 22.7221 11.6213 22.9976 12.4021 23.2115C13.183 23.4253 13.9431 23.5111 14.6825 23.4691H16.4788C16.8434 23.438 17.1192 23.3239 17.3065 23.1255L17.3689 23.0476C17.4103 22.9855 17.4496 22.889 17.4861 22.7589C17.5224 22.6289 17.5411 22.4854 17.5411 22.3295C17.5303 21.8819 17.5645 21.4777 17.6425 21.119C17.7204 20.7596 17.809 20.4892 17.9081 20.3064C18.007 20.1246 18.1187 19.9708 18.2439 19.8456C18.3688 19.7204 18.4571 19.6455 18.5095 19.6193C18.5616 19.5938 18.6034 19.5756 18.6344 19.5645C18.8841 19.4813 19.1783 19.5621 19.517 19.8066C19.8553 20.0519 20.173 20.3533 20.4699 20.7126C20.7665 21.072 21.1231 21.4752 21.5398 21.9232C21.9561 22.3708 22.3206 22.704 22.6331 22.9227L22.9456 23.1107C23.1538 23.2352 23.4242 23.3497 23.7578 23.4542C24.0909 23.558 24.3827 23.5842 24.6324 23.5321L28.6311 23.4694C29.0267 23.4694 29.334 23.4046 29.5527 23.2742C29.7713 23.1448 29.9014 23.0007 29.9431 22.8448C29.9845 22.6886 29.9873 22.5123 29.9511 22.314C29.9146 22.1163 29.878 21.9784 29.8418 21.9004C29.8053 21.8225 29.7714 21.757 29.74 21.7052C29.2193 20.7681 28.2249 19.6172 26.7566 18.2532L26.7253 18.2221L26.7098 18.2063L26.6943 18.1911H26.6786C26.0119 17.5558 25.5904 17.1288 25.4135 16.9098C25.0907 16.4939 25.0176 16.0721 25.1949 15.6451C25.319 15.3214 25.7874 14.6392 26.5996 13.5976Z" fill="#0C6BDC"/>
</g>
<defs>
<clipPath id="clip0">
<rect width="30" height="30" fill="white"/>
</clipPath>
</defs>
</svg>
