<svg width="54" height="54" viewBox="0 0 54 54" fill="none" xmlns="http://www.w3.org/2000/svg">
<path d="M27 0C12.0892 0 0 12.0892 0 27C0 41.9125 12.0892 54 27 54C41.9125 54 54 41.9142 54 27C54 12.0892 41.9123 0 27 0ZM27 48.9374C14.8838 48.9374 5.06258 39.1162 5.06258 27C5.06258 14.8838 14.8838 5.06258 27 5.06258C39.1162 5.06258 48.9374 14.8838 48.9374 27C48.9374 39.1162 39.1162 48.9374 27 48.9374ZM27.0017 11.8411C25.0679 11.8411 23.6047 12.8503 23.6047 14.4804V29.4316C23.6047 31.0634 25.0677 32.0692 27.0017 32.0692C28.8883 32.0692 30.3987 31.0213 30.3987 29.4316V14.4804C30.3985 12.889 28.8883 11.8411 27.0017 11.8411ZM27.0017 35.4375C25.1438 35.4375 23.6317 36.9496 23.6317 38.809C23.6317 40.6653 25.1438 42.1774 27.0017 42.1774C28.8596 42.1774 30.37 40.6653 30.37 38.809C30.3698 36.9494 28.8596 35.4375 27.0017 35.4375Z" fill="#E2574C"/>
</svg>
